<svg width="43" height="48" viewBox="0 0 43 48" fill="none" xmlns="http://www.w3.org/2000/svg">
<path d="M21.5 44.05C9.62585 44.05 -3.43323e-05 34.189 -3.43323e-05 22.025C-3.43323e-05 9.86092 9.62585 0 21.5 0C33.3741 0 43 9.86092 43 22.025C43 34.189 33.3741 44.05 21.5 44.05Z" fill="#0075BE"/>
<path d="M43 22.0234C42.9826 22.2041 42.9448 23.2605 42.913 23.539C42.1747 37.5661 32.3751 47.5242 32.3751 47.5242L31.414 41.6351L43 22.0234Z" fill="#0075BE"/>
<path d="M10.4929 24.2436C10.4588 23.8999 10.3125 23.6328 10.054 23.4425C9.79545 23.2521 9.4446 23.157 9.00142 23.157C8.70028 23.157 8.44602 23.1996 8.23864 23.2848C8.03125 23.3672 7.87216 23.4822 7.76136 23.63C7.65341 23.7777 7.59943 23.9453 7.59943 24.1328C7.59375 24.2891 7.62642 24.4254 7.69744 24.5419C7.77131 24.6584 7.87216 24.7592 8 24.8445C8.12784 24.9268 8.27557 24.9993 8.44318 25.0618C8.6108 25.1214 8.78977 25.1726 8.98011 25.2152L9.7642 25.4027C10.1449 25.4879 10.4943 25.6016 10.8125 25.7436C11.1307 25.8857 11.4063 26.0604 11.6392 26.2678C11.8722 26.4751 12.0526 26.7195 12.1804 27.0007C12.3111 27.282 12.3778 27.6044 12.3807 27.968C12.3778 28.5021 12.2415 28.9652 11.9716 29.3572C11.7045 29.7464 11.3182 30.049 10.8125 30.2649C10.3097 30.478 9.70313 30.5845 8.9929 30.5845C8.28835 30.5845 7.67472 30.4766 7.15199 30.2607C6.6321 30.0447 6.22585 29.7251 5.93324 29.3018C5.64347 28.8757 5.49148 28.3487 5.47727 27.7209H7.26278C7.28267 28.0135 7.36648 28.2578 7.5142 28.4538C7.66477 28.647 7.86506 28.7933 8.11506 28.8928C8.3679 28.9893 8.65341 29.0376 8.97159 29.0376C9.28409 29.0376 9.5554 28.9922 9.78551 28.9013C10.0185 28.8104 10.1989 28.6839 10.3267 28.522C10.4545 28.3601 10.5185 28.174 10.5185 27.9638C10.5185 27.7678 10.4602 27.603 10.3438 27.4695C10.2301 27.3359 10.0625 27.2223 9.84091 27.1286C9.62216 27.0348 9.35369 26.9496 9.03551 26.8729L8.08523 26.6342C7.34943 26.4553 6.76847 26.1754 6.34233 25.7947C5.91619 25.4141 5.70455 24.9013 5.70739 24.2564C5.70455 23.728 5.84517 23.2663 6.12926 22.8714C6.41619 22.4766 6.80966 22.1683 7.30966 21.9467C7.80966 21.7251 8.37784 21.6143 9.0142 21.6143C9.66193 21.6143 10.2273 21.7251 10.7102 21.9467C11.196 22.1683 11.5739 22.4766 11.8438 22.8714C12.1136 23.2663 12.2528 23.7237 12.2614 24.2436H10.4929ZM13.6218 30.4609V21.7337H19.5025V23.255H15.467V25.3345H19.1999V26.8558H15.467V28.9396H19.5195V30.4609H13.6218ZM22.5462 21.7337L24.6555 28.3643H24.7365L26.8501 21.7337H28.8956L25.8871 30.4609H23.5092L20.4964 21.7337H22.5462ZM30.2901 30.4609H28.3129L31.3256 21.7337H33.7035L36.712 30.4609H34.7347L32.5487 23.728H32.4805L30.2901 30.4609ZM30.1665 27.0305H34.837V28.4709H30.1665V27.0305Z" fill="white"/>
<path d="M11.4403 19.2617V13.4435H13.8665C14.3021 13.4435 14.6667 13.5051 14.9602 13.6282C15.2557 13.7513 15.4773 13.9237 15.625 14.1452C15.7746 14.3668 15.8494 14.6235 15.8494 14.9151C15.8494 15.1367 15.803 15.3346 15.7102 15.5089C15.6174 15.6812 15.4896 15.8242 15.3267 15.9379C15.1638 16.0515 14.9754 16.131 14.7614 16.1765V16.2333C14.9962 16.2447 15.2131 16.3081 15.4119 16.4237C15.6127 16.5392 15.7737 16.7002 15.8949 16.9066C16.0161 17.1112 16.0767 17.3536 16.0767 17.6339C16.0767 17.9464 15.9972 18.2257 15.8381 18.4719C15.679 18.7163 15.4489 18.9094 15.1477 19.0515C14.8466 19.1916 14.4811 19.2617 14.0511 19.2617H11.4403ZM12.8466 18.1282H13.7159C14.0208 18.1282 14.2453 18.0704 14.3892 17.9549C14.535 17.8394 14.608 17.6784 14.608 17.4719C14.608 17.3223 14.5729 17.1935 14.5028 17.0856C14.4328 16.9757 14.3333 16.8915 14.2045 16.8327C14.0758 16.7721 13.9214 16.7418 13.7415 16.7418H12.8466V18.1282ZM12.8466 15.8356H13.625C13.7784 15.8356 13.9148 15.81 14.0341 15.7589C14.1534 15.7077 14.2462 15.6339 14.3125 15.5373C14.3807 15.4407 14.4148 15.3242 14.4148 15.1879C14.4148 14.9928 14.3456 14.8394 14.2074 14.7276C14.0691 14.6159 13.8826 14.56 13.6477 14.56H12.8466V15.8356ZM22.2443 16.3526C22.2443 16.9928 22.1212 17.5354 21.875 17.9805C21.6288 18.4255 21.2955 18.7636 20.875 18.9947C20.4564 19.2257 19.9867 19.3413 19.4659 19.3413C18.9432 19.3413 18.4725 19.2248 18.054 18.9918C17.6354 18.7589 17.303 18.4208 17.0568 17.9776C16.8125 17.5326 16.6903 16.9909 16.6903 16.3526C16.6903 15.7125 16.8125 15.1699 17.0568 14.7248C17.303 14.2797 17.6354 13.9416 18.054 13.7106C18.4725 13.4795 18.9432 13.364 19.4659 13.364C19.9867 13.364 20.4564 13.4795 20.875 13.7106C21.2955 13.9416 21.6288 14.2797 21.875 14.7248C22.1212 15.1699 22.2443 15.7125 22.2443 16.3526ZM20.8068 16.3526C20.8068 15.9738 20.7528 15.6538 20.6449 15.3924C20.5388 15.131 20.3854 14.9331 20.1847 14.7987C19.9858 14.6642 19.7462 14.5969 19.4659 14.5969C19.1875 14.5969 18.9479 14.6642 18.7472 14.7987C18.5464 14.9331 18.392 15.131 18.2841 15.3924C18.178 15.6538 18.125 15.9738 18.125 16.3526C18.125 16.7314 18.178 17.0515 18.2841 17.3129C18.392 17.5742 18.5464 17.7721 18.7472 17.9066C18.9479 18.0411 19.1875 18.1083 19.4659 18.1083C19.7462 18.1083 19.9858 18.0411 20.1847 17.9066C20.3854 17.7721 20.5388 17.5742 20.6449 17.3129C20.7528 17.0515 20.8068 16.7314 20.8068 16.3526ZM24.4716 13.4435V19.2617H23.0653V13.4435H24.4716Z" fill="white"/>
<path d="M30.0579 16.6112L26.8589 19.4391L28.6491 15.5736L25 13.4638L29.1697 13.9114L30.0579 7.26172L30.9461 13.9114L35.1201 13.4621L31.4667 15.5727L33.2586 19.4477L30.0579 16.6112Z" fill="#1D1D1B"/>
<path d="M30.0575 16.5301L27.0338 19.2033L28.7286 15.5465L25.2754 13.5527L29.2217 13.9771L30.0575 7.71484L30.8934 13.9771L34.8448 13.5519L31.3916 15.5465L33.0847 19.2059L30.0575 16.5301Z" fill="#E63312"/>
<path fill-rule="evenodd" clip-rule="evenodd" d="M30.8803 14.0078H29.2353L28.75 15.554L30.0583 16.5204L31.3691 15.5523L30.8803 14.0078Z" fill="#0075BF"/>
<path d="M31.1054 15.2842C31.1953 14.7048 30.7985 14.1621 30.219 14.0722C29.6396 13.9823 29.0969 14.3792 29.007 14.9586C28.9171 15.5381 29.314 16.0807 29.8934 16.1706C30.4729 16.2605 31.0155 15.8637 31.1054 15.2842Z" fill="#1D1D1B"/>
<path fill-rule="evenodd" clip-rule="evenodd" d="M30.0581 16.1243C29.86 16.1245 29.6663 16.0659 29.5014 15.9559C29.3366 15.846 29.2081 15.6896 29.1321 15.5066C29.0562 15.3236 29.0363 15.1222 29.0748 14.9278C29.1134 14.7335 29.2087 14.5549 29.3487 14.4148C29.4888 14.2746 29.6672 14.1791 29.8616 14.1404C30.0559 14.1017 30.2573 14.1215 30.4404 14.1972C30.6235 14.273 30.7799 14.4014 30.89 14.5661C31.0001 14.7309 31.0589 14.9246 31.0589 15.1227C31.0589 15.3882 30.9535 15.6428 30.7658 15.8307C30.5782 16.0185 30.3236 16.1241 30.0581 16.1243Z" fill="white"/>
<path d="M30.0821 14.4964H30.0657C30.058 14.4913 30.052 14.4964 30.046 14.4964H30.0391C30.0382 14.4975 30.0377 14.4989 30.0377 14.5003C30.0377 14.5017 30.0382 14.5031 30.0391 14.5042H30.0486C30.0486 14.5042 30.0486 14.5153 30.0563 14.5179H30.0735C30.0755 14.5165 30.0772 14.5145 30.0784 14.5123C30.0796 14.51 30.0803 14.5076 30.0803 14.505H30.0906C30.0912 14.5045 30.0917 14.5038 30.092 14.5031C30.0923 14.5023 30.0924 14.5015 30.0924 14.5007C30.0924 14.4999 30.0923 14.4992 30.092 14.4984C30.0917 14.4977 30.0912 14.497 30.0906 14.4964C30.0901 14.4959 30.0894 14.4954 30.0887 14.4951C30.088 14.4948 30.0872 14.4946 30.0864 14.4946C30.0856 14.4946 30.0848 14.4948 30.084 14.4951C30.0833 14.4954 30.0826 14.4959 30.0821 14.4964ZM30.0554 14.8615C30.0514 14.8612 30.0473 14.8621 30.0436 14.8639C30.0399 14.8657 30.0368 14.8684 30.0345 14.8718C30.0323 14.8752 30.031 14.8791 30.0307 14.8832C30.0305 14.8873 30.0313 14.8914 30.0331 14.895C30.0358 14.8994 30.0394 14.9031 30.0437 14.906C30.048 14.9088 30.0529 14.9106 30.058 14.9114C30.0631 14.9111 30.0682 14.9097 30.0727 14.9071C30.0771 14.9046 30.0809 14.901 30.0838 14.8968C30.0856 14.8929 30.0863 14.8886 30.0859 14.8843C30.0856 14.88 30.0841 14.8759 30.0817 14.8723C30.0793 14.8688 30.076 14.866 30.0721 14.8641C30.0683 14.8622 30.064 14.8613 30.0597 14.8615H30.0554ZM30.0614 14.9019C30.0614 14.9019 30.0546 14.9019 30.0511 14.9019C30.0466 14.8963 30.0442 14.8893 30.0443 14.8822C30.0463 14.8746 30.0508 14.8679 30.0572 14.8633C30.0599 14.8656 30.0621 14.8685 30.0636 14.8717C30.0651 14.875 30.0658 14.8786 30.0658 14.8822C30.0658 14.8857 30.0651 14.8893 30.0636 14.8926C30.0621 14.8958 30.0599 14.8987 30.0572 14.9011L30.0614 14.9019ZM30.4051 15.2601C30.4035 15.2592 30.4021 15.258 30.4011 15.2565C30.4 15.255 30.3993 15.2533 30.399 15.2515C30.3986 15.2545 30.3972 15.2572 30.395 15.2593C30.3928 15.2613 30.39 15.2625 30.387 15.2627H30.3776C30.3776 15.2627 30.3956 15.2704 30.399 15.2627C30.4025 15.255 30.4162 15.2721 30.4179 15.2627C30.416 15.2635 30.414 15.264 30.4119 15.264C30.4099 15.264 30.4078 15.2635 30.4059 15.2627L30.4051 15.2601ZM30.4669 15.2601C30.4592 15.2601 30.4514 15.255 30.4446 15.2601C30.4412 15.2604 30.438 15.2616 30.4352 15.2633C30.4324 15.2651 30.43 15.2676 30.4282 15.2704C30.4233 15.2768 30.4206 15.2847 30.4205 15.2928C30.4311 15.2964 30.4426 15.2964 30.4532 15.2928C30.4577 15.2879 30.4609 15.282 30.4626 15.2756C30.4626 15.2756 30.4703 15.267 30.4686 15.261L30.4669 15.2601ZM30.4368 15.2816C30.4368 15.2816 30.4368 15.2713 30.4454 15.2713C30.447 15.2729 30.4479 15.275 30.4479 15.2773C30.4479 15.2795 30.447 15.2817 30.4454 15.2833C30.4532 15.2833 30.4566 15.2782 30.4574 15.2713C30.4583 15.2644 30.4575 15.2713 30.4626 15.2713C30.4614 15.2754 30.4587 15.2789 30.4551 15.2811C30.4514 15.2833 30.447 15.2841 30.4428 15.2833L30.4368 15.2816ZM30.3595 15.2618C30.3475 15.2558 30.3363 15.2618 30.326 15.2618H30.3192C30.3189 15.2638 30.3191 15.2657 30.3197 15.2676C30.3202 15.2695 30.3212 15.2712 30.3225 15.2727C30.3238 15.2741 30.3254 15.2753 30.3272 15.2761C30.329 15.2769 30.3309 15.2773 30.3329 15.2773C30.3329 15.2919 30.3518 15.2962 30.3707 15.2953C30.3707 15.2953 30.3758 15.2953 30.3758 15.2893C30.3765 15.2851 30.3765 15.2807 30.3758 15.2764C30.3725 15.2696 30.3674 15.2637 30.3612 15.2593L30.3595 15.2618ZM30.3432 15.2722C30.3501 15.2722 30.3587 15.2722 30.3518 15.279C30.3449 15.2859 30.3518 15.279 30.3466 15.279C30.3415 15.279 30.3587 15.2868 30.3638 15.279C30.3638 15.279 30.3424 15.279 30.3458 15.2696L30.3432 15.2722ZM30.3827 15.4165C30.3829 15.4192 30.384 15.4219 30.3859 15.4239C30.3878 15.4259 30.3903 15.4272 30.393 15.4276C30.3942 15.4282 30.3956 15.4284 30.3969 15.4284C30.3982 15.4284 30.3995 15.4282 30.4008 15.4276C30.4014 15.4264 30.4017 15.4251 30.4017 15.4238C30.4017 15.4224 30.4014 15.4211 30.4008 15.4199C30.3943 15.4181 30.3875 15.4181 30.381 15.4199L30.3827 15.4165ZM30.2479 15.6475C30.253 15.6424 30.2616 15.6415 30.2659 15.6381C30.2564 15.6286 30.229 15.6295 30.2307 15.6493C30.2324 15.669 30.2504 15.6604 30.2496 15.6493L30.2479 15.6475ZM30.308 15.809H30.2951H30.2865C30.28 15.8082 30.2733 15.8082 30.2668 15.809C30.2573 15.809 30.2324 15.809 30.2453 15.8228C30.2521 15.8261 30.2593 15.8287 30.2668 15.8305C30.266 15.8312 30.2654 15.832 30.265 15.8328C30.2646 15.8337 30.2644 15.8347 30.2644 15.8356C30.2644 15.8366 30.2646 15.8376 30.265 15.8385C30.2654 15.8394 30.266 15.8402 30.2668 15.8408C30.2808 15.8458 30.2956 15.8484 30.3106 15.8485C30.3214 15.8477 30.3323 15.8477 30.3432 15.8485L30.3587 15.8537C30.369 15.8546 30.3793 15.8519 30.3879 15.846C30.3897 15.8459 30.3915 15.8452 30.393 15.8441C30.3945 15.843 30.3956 15.8415 30.3963 15.8398C30.3969 15.838 30.397 15.8362 30.3966 15.8344C30.3962 15.8326 30.3952 15.8309 30.3939 15.8296C30.3811 15.8232 30.367 15.8197 30.3527 15.8193C30.3535 15.8099 30.3277 15.809 30.308 15.809ZM30.7607 15.6699H30.6937L30.6671 15.6647L30.6473 15.6536C30.6223 15.6404 30.5965 15.6289 30.57 15.6192C30.5769 15.6097 30.5829 15.6029 30.588 15.5951C30.5924 15.5818 30.5953 15.5679 30.5966 15.5539C30.5978 15.5449 30.5995 15.536 30.6018 15.5273C30.6035 15.5096 30.6035 15.4917 30.6018 15.474V15.322C30.6004 15.3012 30.5963 15.2807 30.5897 15.261C30.5829 15.2421 30.5786 15.2215 30.5717 15.2043C30.5693 15.1976 30.5661 15.1913 30.5623 15.1854C30.5623 15.1854 30.5511 15.1776 30.5485 15.1725C30.549 15.1702 30.549 15.1679 30.5485 15.1656C30.5485 15.1587 30.5373 15.1562 30.5322 15.1527L30.5219 15.1433L30.5098 15.1373H30.4987C30.4967 15.1352 30.4944 15.1334 30.4918 15.1321L30.4566 15.1252H30.4489C30.4308 15.1201 30.4051 15.1252 30.3862 15.1184C30.3673 15.1115 30.3466 15.1012 30.3286 15.096C30.3286 15.0857 30.3217 15.0832 30.3157 15.0797C30.3097 15.0763 30.3209 15.0643 30.3157 15.0608H30.3071C30.2977 15.0273 30.2917 14.993 30.2839 14.9603C30.2788 14.944 30.2719 14.9285 30.2685 14.9122C30.2679 14.9034 30.2679 14.8945 30.2685 14.8856C30.2691 14.8764 30.2674 14.8672 30.2633 14.859C30.2582 14.8495 30.2633 14.8323 30.2633 14.8177C30.2633 14.8031 30.2788 14.804 30.2779 14.7945C30.2771 14.7851 30.2779 14.7945 30.2779 14.7894C30.2757 14.7827 30.2725 14.7763 30.2685 14.7705C30.2607 14.749 30.2549 14.7269 30.2513 14.7043C30.2481 14.6816 30.2429 14.6592 30.2358 14.6373C30.2326 14.631 30.2301 14.6244 30.2281 14.6176C30.2279 14.6117 30.2257 14.606 30.2218 14.6016C30.2178 14.5972 30.2125 14.5943 30.2066 14.5935C30.2049 14.5888 30.2022 14.5844 30.1989 14.5806C30.196 14.5767 30.1936 14.5724 30.192 14.5678V14.5489C30.192 14.5437 30.192 14.5489 30.1869 14.5411C30.1864 14.5383 30.1864 14.5354 30.1869 14.5325C30.1869 14.5325 30.1817 14.5325 30.1808 14.5248C30.1825 14.5209 30.1829 14.5165 30.1819 14.5124C30.181 14.5082 30.1789 14.5045 30.1757 14.5016C30.1757 14.4947 30.1757 14.4879 30.1757 14.4827C30.1777 14.4763 30.1777 14.4694 30.1757 14.4629C30.1767 14.4595 30.1768 14.4558 30.1759 14.4524C30.175 14.4489 30.1731 14.4457 30.1705 14.4432C30.1726 14.4356 30.1726 14.4276 30.1705 14.42V14.4054C30.1709 14.4026 30.1709 14.3997 30.1705 14.3968V14.3856C30.1699 14.3686 30.1636 14.3522 30.1525 14.3393C30.1439 14.3302 30.1335 14.3232 30.1219 14.3186C30.1104 14.314 30.0979 14.3119 30.0855 14.3126C30.0619 14.3116 30.0385 14.3185 30.0194 14.3324C30.0069 14.3408 29.9978 14.3532 29.9936 14.3676C29.9877 14.3778 29.9841 14.3893 29.9833 14.4011C29.9819 14.4088 29.9796 14.4163 29.9764 14.4234C29.9755 14.4274 29.9755 14.4315 29.9764 14.4355V14.4501C29.9756 14.4569 29.9756 14.4638 29.9764 14.4707C29.9751 14.4719 29.9741 14.4734 29.9734 14.475C29.9726 14.4766 29.9723 14.4783 29.9723 14.4801C29.9723 14.4819 29.9726 14.4837 29.9734 14.4853C29.9741 14.4869 29.9751 14.4884 29.9764 14.4896C29.9735 14.4931 29.972 14.4975 29.972 14.502C29.972 14.5066 29.9735 14.511 29.9764 14.5145V14.5351C29.9766 14.537 29.9762 14.539 29.9753 14.5406C29.9744 14.5423 29.973 14.5437 29.9713 14.5446C29.9701 14.5468 29.9695 14.5493 29.9695 14.5519C29.9695 14.5544 29.9701 14.5569 29.9713 14.5592C29.9685 14.5617 29.9664 14.565 29.9654 14.5686C29.9643 14.5723 29.9642 14.5761 29.9652 14.5798C29.9629 14.5816 29.9612 14.584 29.9603 14.5867C29.9594 14.5895 29.9593 14.5924 29.9601 14.5952C29.9601 14.5952 29.9524 14.603 29.9489 14.6073C29.946 14.6114 29.9434 14.6157 29.9412 14.6202C29.9334 14.6331 29.9273 14.6469 29.9232 14.6614C29.9111 14.7129 29.9017 14.7696 29.8871 14.8194C29.8853 14.8296 29.8821 14.8394 29.8776 14.8486C29.8493 14.8404 29.8207 14.8335 29.7917 14.828V14.8143C29.7917 14.8143 29.7797 14.8143 29.7737 14.8143C29.7728 14.8124 29.7714 14.8107 29.7698 14.8094C29.7682 14.808 29.7663 14.8071 29.7642 14.8065C29.7623 14.8057 29.7603 14.8053 29.7582 14.8053C29.7561 14.8053 29.7541 14.8057 29.7522 14.8065L29.7419 14.7997C29.7389 14.7866 29.7316 14.7748 29.7213 14.7662L29.7041 14.7567C29.696 14.7508 29.687 14.7462 29.6775 14.743C29.669 14.7395 29.6616 14.7339 29.656 14.7267V14.7189L29.6311 14.6193V14.5978C29.6314 14.5932 29.6314 14.5886 29.6311 14.5841C29.6264 14.571 29.6229 14.5574 29.6208 14.5437C29.6342 14.5416 29.6468 14.5356 29.6569 14.5265C29.6642 14.5179 29.6682 14.5069 29.668 14.4956C29.668 14.4586 29.6362 14.4312 29.6337 14.3916V14.3685C29.6337 14.3616 29.6268 14.3753 29.6251 14.3788C29.6148 14.4097 29.6328 14.438 29.638 14.4647C29.639 14.4705 29.6387 14.4764 29.6371 14.4821C29.6355 14.4878 29.6325 14.493 29.6285 14.4973C29.6285 14.4973 29.6165 14.5076 29.6113 14.505C29.6083 14.4912 29.6083 14.4768 29.6113 14.4629C29.6113 14.4561 29.6113 14.4492 29.6113 14.4415L29.6036 14.4312L29.5959 14.4208C29.5854 14.4041 29.5762 14.3866 29.5684 14.3685C29.5684 14.3633 29.5684 14.3547 29.5581 14.353C29.5477 14.3513 29.5581 14.3607 29.5581 14.3642C29.559 14.3773 29.559 14.3905 29.5581 14.4037C29.5593 14.4168 29.5593 14.43 29.5581 14.4432C29.5581 14.4432 29.5581 14.4509 29.5581 14.4552L29.5641 14.4612L29.5692 14.4715C29.5774 14.4832 29.5841 14.496 29.589 14.5093C29.589 14.5093 29.583 14.5154 29.589 14.5197C29.5684 14.5274 29.5563 14.5128 29.5546 14.4956C29.5537 14.4793 29.5537 14.463 29.5546 14.4466C29.5524 14.4296 29.5459 14.4133 29.5357 14.3994C29.5357 14.3994 29.528 14.3908 29.522 14.3925C29.516 14.3942 29.522 14.4011 29.528 14.4062C29.5347 14.4436 29.5368 14.4818 29.534 14.5197C29.5343 14.5262 29.5361 14.5326 29.5394 14.5383C29.5427 14.544 29.5473 14.5488 29.5529 14.5523C29.5684 14.5582 29.5855 14.5582 29.601 14.5523C29.601 14.566 29.6096 14.5824 29.613 14.597C29.6132 14.5998 29.6132 14.6027 29.613 14.6056C29.614 14.6051 29.615 14.6048 29.616 14.6048C29.6171 14.6048 29.6181 14.6051 29.6191 14.6056C29.6191 14.6056 29.6191 14.6176 29.6191 14.6227L29.6483 14.7404C29.6487 14.7415 29.649 14.7427 29.649 14.7438C29.649 14.745 29.6487 14.7462 29.6483 14.7473C29.647 14.7532 29.647 14.7594 29.6483 14.7653V14.7739C29.6483 14.7739 29.6483 14.7808 29.6534 14.7842C29.6586 14.7876 29.6534 14.7988 29.6594 14.8022C29.6597 14.8097 29.6628 14.8168 29.668 14.822C29.6717 14.8239 29.6749 14.8265 29.6775 14.8297C29.6804 14.8357 29.6824 14.8421 29.6835 14.8486C29.6829 14.8552 29.6829 14.8618 29.6835 14.8684C29.6938 14.9088 29.7032 14.9474 29.7127 14.987C29.7462 15.1192 29.778 15.2498 29.8106 15.3821C29.8166 15.4087 29.8252 15.4353 29.8286 15.462L29.8106 15.468L29.784 15.48C29.7695 15.4862 29.7554 15.4934 29.7419 15.5015H29.7342C29.6986 15.5284 29.6692 15.5626 29.6483 15.602C29.6483 15.608 29.6405 15.6132 29.638 15.6183C29.6354 15.6235 29.638 15.6261 29.638 15.6295L29.6319 15.6398C29.6246 15.6562 29.6197 15.6735 29.6173 15.6913C29.614 15.7128 29.6163 15.7347 29.6242 15.7549C29.6139 15.7549 29.5924 15.7549 29.5916 15.7678C29.5907 15.7807 29.5984 15.779 29.6002 15.7824C29.5946 15.7842 29.5886 15.7842 29.583 15.7824C29.5697 15.7794 29.5559 15.7794 29.5426 15.7824C29.54 15.7828 29.5377 15.7842 29.5361 15.7863C29.5345 15.7884 29.5338 15.791 29.534 15.7936C29.534 15.7987 29.5538 15.8056 29.5632 15.8056H29.5735C29.5812 15.804 29.5891 15.804 29.5967 15.8056H29.6414L29.6345 15.8125C29.635 15.8159 29.635 15.8194 29.6345 15.8228C29.6391 15.8297 29.6462 15.8346 29.6543 15.8365C29.6723 15.8365 29.6861 15.8314 29.7032 15.8365C29.716 15.8407 29.7293 15.8428 29.7427 15.8425C29.7403 15.8464 29.739 15.8509 29.739 15.8554C29.739 15.86 29.7403 15.8645 29.7427 15.8683C29.7427 15.8683 29.7505 15.8683 29.7539 15.8752C29.767 15.8765 29.7803 15.8765 29.7934 15.8752C29.802 15.8752 29.8184 15.8692 29.8269 15.8752C29.8355 15.8812 29.8269 15.882 29.8338 15.8855L29.8389 15.8906L29.8441 15.8958C29.8537 15.897 29.8625 15.9015 29.869 15.9087C29.8675 15.9229 29.8702 15.9372 29.8768 15.9499C29.8768 15.9499 29.8862 15.9568 29.8879 15.9619C29.8896 15.9671 29.9043 15.9731 29.912 15.9783L29.93 15.986C29.9358 15.9902 29.941 15.9951 29.9455 16.0006V15.992C29.9298 15.987 29.9154 15.9785 29.9034 15.9671C29.9065 15.9478 29.9046 15.928 29.8979 15.9096C29.8911 15.8912 29.8797 15.8749 29.8647 15.8623C29.8612 15.8601 29.8583 15.8572 29.8561 15.8537C29.8659 15.8505 29.8752 15.8458 29.8836 15.8399C29.8836 15.8571 29.8914 15.8752 29.8948 15.8932C29.8982 15.9113 29.8948 15.907 29.9017 15.9087C29.9071 15.9096 29.9126 15.9096 29.918 15.9087C29.9188 15.9004 29.9188 15.892 29.918 15.8838C29.9161 15.8715 29.9132 15.8595 29.9094 15.8477C29.9094 15.8348 29.9042 15.8322 29.9094 15.8288C29.9184 15.8242 29.9286 15.8225 29.9386 15.8236H29.9601C29.9687 15.8236 29.9755 15.8159 29.985 15.8236C29.9944 15.8314 29.9919 15.8314 29.9962 15.8322C30.0114 15.836 30.0273 15.836 30.0425 15.8322L30.0623 15.8262C30.0716 15.8253 30.0806 15.8227 30.0889 15.8185C30.0958 15.8185 30.1095 15.8185 30.1104 15.8082C30.1113 15.7979 30.1053 15.8082 30.1104 15.8013C30.116 15.7983 30.1221 15.7965 30.1284 15.7961H30.1688C30.1793 15.7978 30.1901 15.7978 30.2006 15.7961C30.2062 15.798 30.2122 15.798 30.2178 15.7961H30.2693C30.2823 15.7953 30.295 15.7923 30.3071 15.7875C30.3071 15.7875 30.314 15.7815 30.3166 15.7815H30.3475C30.3527 15.7815 30.363 15.7815 30.3638 15.7815C30.3647 15.7815 30.3587 15.773 30.3561 15.7712C30.3385 15.7636 30.319 15.7615 30.3003 15.7652C30.3003 15.7652 30.2899 15.7652 30.2874 15.7652C30.2848 15.7652 30.2934 15.7652 30.2968 15.7601C30.3003 15.7549 30.2968 15.7601 30.3037 15.7532C30.3194 15.7554 30.3353 15.7554 30.3509 15.7532C30.3597 15.7586 30.3699 15.7613 30.3801 15.7609V15.7686C30.3888 15.7733 30.3986 15.7757 30.4085 15.7755C30.4386 15.7755 30.4703 15.7824 30.4995 15.7841C30.5116 15.7944 30.5348 15.7919 30.5511 15.797L30.5399 15.8047C30.5188 15.7988 30.4966 15.7988 30.4755 15.8047C30.4739 15.8056 30.4725 15.8069 30.4716 15.8085C30.4707 15.8101 30.4702 15.8119 30.4702 15.8138C30.4702 15.8156 30.4707 15.8174 30.4716 15.819C30.4725 15.8206 30.4739 15.8219 30.4755 15.8228C30.4857 15.8285 30.4973 15.8312 30.509 15.8305C30.5216 15.8318 30.5342 15.8318 30.5468 15.8305C30.5524 15.8293 30.5576 15.827 30.5623 15.8236C30.5634 15.8206 30.5634 15.8172 30.5623 15.8142C30.5743 15.8142 30.6086 15.8142 30.6095 15.8039C30.6103 15.7936 30.6095 15.7987 30.6095 15.7961C30.6095 15.7936 30.6172 15.7884 30.6224 15.7867H30.643C30.6481 15.7867 30.649 15.7798 30.6533 15.7755C30.6604 15.7772 30.6677 15.7772 30.6748 15.7755C30.6825 15.7755 30.6877 15.7644 30.6954 15.7626C30.7033 15.761 30.7115 15.761 30.7195 15.7626C30.7277 15.7634 30.7361 15.7634 30.7444 15.7626C30.7525 15.7652 30.7612 15.7652 30.7693 15.7626C30.7744 15.7626 30.7779 15.7566 30.7822 15.7549C30.7865 15.7532 30.8002 15.7549 30.8053 15.7455C30.8105 15.736 30.8053 15.7455 30.8053 15.7394C30.8128 15.7365 30.8189 15.731 30.8226 15.7239C30.8262 15.7168 30.8271 15.7085 30.8251 15.7008C30.8242 15.6952 30.8222 15.6899 30.8191 15.6851C30.8161 15.6804 30.8121 15.6762 30.8075 15.673C30.8028 15.6698 30.7976 15.6676 30.7921 15.6665C30.7865 15.6653 30.7808 15.6653 30.7753 15.6664L30.7607 15.6699ZM29.5246 14.5386C29.5161 14.5406 29.5072 14.5406 29.4988 14.5386C29.4939 14.5363 29.4895 14.533 29.4859 14.5291C29.479 14.5072 29.4773 14.484 29.4807 14.4612V14.5007C29.4794 14.5081 29.4794 14.5157 29.4807 14.5231C29.4832 14.527 29.4865 14.5303 29.4903 14.5328C29.4942 14.5354 29.4985 14.537 29.5031 14.5377H29.5237C29.5237 14.5377 29.5297 14.5411 29.5271 14.5411L29.5246 14.5386ZM29.534 14.4887C29.5273 14.4765 29.5198 14.4648 29.5117 14.4535C29.5151 14.4403 29.5174 14.4268 29.5185 14.4131V14.4183C29.5185 14.4234 29.5306 14.4406 29.5185 14.4449C29.5218 14.4617 29.5267 14.4781 29.5332 14.4939C29.5332 14.4939 29.5349 14.4922 29.5349 14.4904L29.534 14.4887ZM29.534 14.5145L29.5417 14.5093C29.5417 14.5093 29.5417 14.5291 29.5503 14.5334H29.5435C29.5435 14.5334 29.5357 14.5188 29.5375 14.5145H29.534ZM29.5521 14.5841C29.5509 14.5708 29.5489 14.5576 29.546 14.5446C29.5477 14.553 29.55 14.5613 29.5529 14.5695C29.5544 14.578 29.5544 14.5867 29.5529 14.5952C29.5529 14.5952 29.5589 14.591 29.5546 14.5867L29.5521 14.5841ZM29.5649 14.5111L29.5804 14.5016C29.5788 14.5045 29.5766 14.5071 29.574 14.509C29.5713 14.5109 29.5682 14.5122 29.5649 14.5128V14.5111ZM30.5786 15.5711V15.5805C30.5748 15.5889 30.5699 15.5967 30.564 15.6037C30.5509 15.6168 30.5362 15.628 30.5201 15.6372C30.5201 15.6372 30.5116 15.6458 30.5073 15.6501C30.5029 15.6547 30.498 15.6587 30.4927 15.6621H30.4841C30.4841 15.6621 30.4841 15.6621 30.4901 15.657C30.4961 15.6518 30.497 15.657 30.4978 15.6501C30.4984 15.6475 30.4984 15.6449 30.4978 15.6424C30.4978 15.6424 30.5133 15.6286 30.5193 15.6201C30.5218 15.6154 30.5238 15.6105 30.5253 15.6055V15.5969C30.5253 15.5969 30.5356 15.59 30.539 15.5866L30.5476 15.5745C30.5544 15.5687 30.5605 15.5621 30.5657 15.5548C30.5631 15.5359 30.5631 15.5169 30.5657 15.4981C30.558 15.5067 30.5657 15.523 30.5657 15.5359C30.5656 15.543 30.5639 15.55 30.5608 15.5564C30.5577 15.5627 30.5532 15.5683 30.5476 15.5728C30.5481 15.5671 30.5481 15.5613 30.5476 15.5556C30.5476 15.5487 30.5537 15.5436 30.5571 15.5384C30.5605 15.5333 30.5571 15.5161 30.5571 15.5041C30.5583 15.4988 30.56 15.4936 30.5623 15.4886C30.5631 15.4826 30.5631 15.4766 30.5623 15.4706C30.5623 15.4706 30.5623 15.4628 30.5623 15.4594C30.5623 15.456 30.5623 15.4499 30.5623 15.4431C30.5619 15.4382 30.5619 15.4333 30.5623 15.4285C30.5617 15.4251 30.5619 15.4217 30.5628 15.4185C30.5637 15.4152 30.5653 15.4122 30.5674 15.4096H30.5726C30.5726 15.4096 30.5726 15.4027 30.5786 15.4036C30.5846 15.4044 30.5889 15.4259 30.5897 15.4345C30.5911 15.4465 30.5911 15.4586 30.5897 15.4706V15.4955C30.5897 15.5032 30.5983 15.5247 30.6001 15.5393C30.5976 15.549 30.5932 15.558 30.5872 15.5659L30.5786 15.5711ZM30.4282 15.5376V15.5118C30.4282 15.5049 30.4334 15.4998 30.4343 15.4929C30.4351 15.486 30.4343 15.4817 30.4343 15.474V15.4585C30.4343 15.4534 30.4343 15.4379 30.4282 15.4371C30.4222 15.4362 30.4205 15.4482 30.4205 15.4542C30.4201 15.458 30.4201 15.4617 30.4205 15.4654C30.4205 15.4714 30.4257 15.4749 30.4265 15.48C30.4274 15.4852 30.4265 15.5006 30.4265 15.5075V15.5213C30.4265 15.5213 30.4214 15.5367 30.4214 15.5427C30.4214 15.5487 30.4283 15.5548 30.43 15.5608C30.4368 15.584 30.4214 15.6003 30.4136 15.6158C30.4059 15.6312 30.4025 15.6209 30.3973 15.6278C30.3922 15.6347 30.3905 15.6475 30.3776 15.6407C30.3776 15.6346 30.3853 15.6338 30.3879 15.6286C30.3963 15.6243 30.4028 15.617 30.4059 15.608C30.408 15.5915 30.408 15.5747 30.4059 15.5582C30.4065 15.5505 30.4082 15.543 30.4111 15.5359C30.4139 15.529 30.4157 15.5218 30.4162 15.5144C30.4162 15.4981 30.4093 15.4843 30.4111 15.4723C30.4128 15.4603 30.4179 15.4611 30.4188 15.4551C30.4196 15.4517 30.4196 15.4482 30.4188 15.4448H30.3939C30.3926 15.4481 30.3926 15.4518 30.3939 15.4551C30.394 15.457 30.3944 15.4588 30.3953 15.4605C30.3962 15.4621 30.3975 15.4635 30.399 15.4646C30.4042 15.4646 30.399 15.4757 30.399 15.4826C30.3999 15.4886 30.3999 15.4947 30.399 15.5006C30.399 15.5187 30.387 15.5333 30.3887 15.553C30.3863 15.551 30.3845 15.5483 30.3836 15.5453C30.3827 15.5419 30.3827 15.5384 30.3836 15.535C30.3836 15.5299 30.3896 15.5264 30.3896 15.5213V15.5075C30.3896 15.5075 30.3956 15.4955 30.3956 15.4903C30.3952 15.4861 30.3934 15.4822 30.3905 15.4792C30.3905 15.4671 30.3836 15.4611 30.3844 15.4491C30.3844 15.4491 30.3698 15.4491 30.3655 15.4439C30.3612 15.4388 30.3655 15.4259 30.357 15.4216C30.3484 15.4173 30.3664 15.4216 30.3716 15.4216C30.3753 15.4182 30.3802 15.4164 30.3853 15.4165H30.4102C30.4102 15.4165 30.4205 15.4165 30.4248 15.4216H30.43C30.4356 15.4229 30.4407 15.4259 30.4446 15.4302C30.4575 15.4302 30.4635 15.4139 30.4686 15.4027C30.4686 15.419 30.4566 15.4293 30.4583 15.4474C30.46 15.4654 30.4712 15.4723 30.4755 15.4852C30.4752 15.4898 30.4752 15.4943 30.4755 15.4989C30.475 15.5174 30.469 15.5353 30.4583 15.5505C30.4556 15.5484 30.4534 15.5458 30.4518 15.5429C30.4501 15.5399 30.4492 15.5366 30.4489 15.5333C30.4489 15.5238 30.4583 15.5152 30.46 15.5066C30.4603 15.4931 30.4577 15.4796 30.4523 15.4671C30.4528 15.4642 30.4526 15.4612 30.4517 15.4584C30.4508 15.4555 30.4492 15.4529 30.4471 15.4508C30.445 15.4489 30.4432 15.4466 30.442 15.4439C30.442 15.4439 30.442 15.4345 30.436 15.4328C30.43 15.4311 30.4308 15.4328 30.43 15.4414C30.4291 15.45 30.4428 15.4611 30.4463 15.4697C30.4497 15.4783 30.4463 15.4775 30.4463 15.4826C30.4483 15.4893 30.4483 15.4965 30.4463 15.5032C30.4463 15.5118 30.4343 15.5187 30.4334 15.5281C30.4336 15.5346 30.435 15.5411 30.4377 15.547L30.4463 15.5582C30.4488 15.5642 30.4506 15.5706 30.4514 15.5771C30.4526 15.5835 30.4544 15.5898 30.4566 15.596C30.4578 15.6034 30.4578 15.6109 30.4566 15.6183C30.455 15.6249 30.4521 15.631 30.448 15.6364C30.4447 15.6422 30.4396 15.6467 30.4334 15.6493L30.4154 15.6553H30.3939C30.3939 15.6372 30.4119 15.6355 30.4205 15.6261C30.4308 15.6132 30.4357 15.5969 30.4343 15.5805C30.4343 15.5668 30.4291 15.5608 30.4343 15.5487L30.4282 15.5376ZM30.3037 15.5745V15.5823C30.3012 15.5794 30.2992 15.5762 30.2977 15.5728C30.2938 15.5614 30.2938 15.549 30.2977 15.5376C30.3041 15.5233 30.3059 15.5074 30.3028 15.492C30.3028 15.4852 30.2942 15.4783 30.2908 15.4714C30.2866 15.4662 30.2835 15.4601 30.2818 15.4536C30.28 15.4471 30.2796 15.4403 30.2805 15.4336C30.2805 15.4216 30.2865 15.4087 30.2874 15.3941C30.2856 15.3804 30.2856 15.3666 30.2874 15.3529C30.2896 15.3456 30.2928 15.3387 30.2968 15.3323C30.299 15.3352 30.3007 15.3384 30.302 15.3417C30.3054 15.3547 30.3054 15.3683 30.302 15.3812C30.302 15.3898 30.2951 15.3967 30.2925 15.4044C30.2895 15.4186 30.2895 15.4332 30.2925 15.4474C30.2944 15.4535 30.2967 15.4596 30.2994 15.4654C30.3068 15.4772 30.3126 15.4899 30.3166 15.5032C30.3179 15.5094 30.3179 15.5159 30.3166 15.5221C30.3166 15.535 30.3088 15.5436 30.3166 15.5591C30.3243 15.5745 30.3235 15.5719 30.3269 15.5788C30.3311 15.5874 30.3333 15.5968 30.3333 15.6063C30.3333 15.6158 30.3311 15.6252 30.3269 15.6338C30.32 15.6338 30.3183 15.626 30.314 15.6209C30.3183 15.6139 30.3207 15.6059 30.3207 15.5977C30.3207 15.5895 30.3183 15.5815 30.314 15.5745H30.3037ZM30.2032 15.3967C30.2135 15.4199 30.2032 15.4517 30.2195 15.4706C30.229 15.4831 30.2427 15.4916 30.2582 15.4946C30.2659 15.4998 30.2582 15.5084 30.2582 15.5152C30.2582 15.5221 30.2582 15.5247 30.2633 15.5316C30.2646 15.5375 30.2646 15.5437 30.2633 15.5496C30.2608 15.5454 30.2591 15.5407 30.2582 15.5359C30.2552 15.5299 30.2515 15.5244 30.247 15.5195C30.2375 15.5084 30.2212 15.5058 30.2109 15.4955C30.1993 15.4811 30.1927 15.4633 30.192 15.4448C30.1993 15.4293 30.2045 15.4128 30.2075 15.3958L30.2032 15.3967ZM30.1894 15.4225V15.4156L30.1946 15.3915C30.1937 15.3895 30.1932 15.3873 30.1932 15.3851C30.1932 15.3829 30.1937 15.3807 30.1946 15.3787C30.1921 15.388 30.1904 15.3974 30.1894 15.407C30.1901 15.4121 30.1901 15.4173 30.1894 15.4225ZM30.1542 14.8564C30.1547 14.8544 30.1547 14.8523 30.1542 14.8504C30.1611 14.8452 30.1662 14.8366 30.174 14.834C30.1732 14.8415 30.1732 14.849 30.174 14.8564C30.1736 14.8627 30.1736 14.869 30.174 14.8753C30.1733 14.887 30.1751 14.8986 30.1791 14.9096C30.1843 14.9182 30.1894 14.9517 30.1937 14.9638C30.2069 14.998 30.2218 15.0315 30.2384 15.0643C30.2384 15.0643 30.2324 15.072 30.2384 15.078C30.2444 15.084 30.2384 15.078 30.2436 15.0857C30.244 15.0897 30.244 15.0938 30.2436 15.0978C30.2436 15.1029 30.2599 15.1106 30.2676 15.1115C30.2703 15.1165 30.2726 15.1217 30.2745 15.127C30.2779 15.1321 30.28 15.138 30.2805 15.1441L30.2693 15.1536C30.2635 15.1597 30.2584 15.1663 30.2539 15.1733C30.2411 15.1902 30.2307 15.2087 30.2229 15.2283C30.2213 15.2322 30.2193 15.236 30.2169 15.2395C30.2284 15.1216 30.2076 15.0029 30.1568 14.8959V14.8856V14.8701C30.1578 14.865 30.1578 14.8598 30.1568 14.8547L30.1542 14.8564ZM30.1877 14.8272C30.1897 14.8271 30.1917 14.8266 30.1934 14.8257C30.1952 14.8248 30.1968 14.8236 30.198 14.822C30.2109 14.8178 30.2241 14.8149 30.2376 14.8134C30.238 14.8154 30.238 14.8175 30.2376 14.8194C30.2292 14.8221 30.2205 14.8238 30.2118 14.8246H30.1877V14.8272ZM30.4033 15.1708C30.4102 15.1708 30.4128 15.1622 30.4214 15.1622C30.43 15.1622 30.4145 15.1742 30.4119 15.1802C30.4059 15.1844 30.3986 15.1862 30.3913 15.1854C30.3844 15.1843 30.3777 15.182 30.3716 15.1785C30.3555 15.1725 30.3378 15.1725 30.3217 15.1785C30.3108 15.1839 30.3009 15.1912 30.2925 15.2C30.2948 15.1896 30.3002 15.1803 30.3081 15.1732C30.316 15.1661 30.3258 15.1617 30.3363 15.1605H30.3604C30.3802 15.1665 30.3939 15.1751 30.4076 15.1716L30.4033 15.1708ZM30.3913 15.163C30.3913 15.1579 30.3982 15.1631 30.399 15.1562C30.3999 15.1493 30.399 15.1673 30.393 15.163H30.3913ZM30.5141 15.1923V15.2069C30.5141 15.212 30.5047 15.2146 30.5004 15.2163C30.4958 15.218 30.4908 15.2184 30.486 15.2175C30.4811 15.2166 30.4766 15.2144 30.4729 15.2112C30.4894 15.2097 30.5051 15.2031 30.5176 15.1923H30.5141ZM30.5141 15.1923V15.1871C30.5141 15.182 30.5296 15.1871 30.5322 15.1948C30.5346 15.2039 30.5335 15.2136 30.529 15.222C30.5246 15.2303 30.5171 15.2365 30.5081 15.2395C30.5021 15.2395 30.4918 15.2395 30.4909 15.2335C30.4901 15.2275 30.491 15.2335 30.4961 15.2335C30.5067 15.232 30.5164 15.2268 30.5236 15.2189C30.5382 15.2026 30.5331 15.1905 30.5236 15.1905L30.5141 15.1923ZM30.5511 15.3821C30.5507 15.3891 30.5487 15.3959 30.5451 15.4019C30.5451 15.4105 30.5322 15.413 30.5296 15.4207C30.527 15.4285 30.5348 15.4431 30.5296 15.4542C30.5245 15.4654 30.5236 15.4542 30.5227 15.4465L30.5176 15.4379C30.5176 15.4216 30.5245 15.3993 30.5176 15.3812C30.5176 15.3812 30.5176 15.3735 30.5176 15.3709C30.5176 15.3684 30.5253 15.3563 30.5244 15.3452C30.5236 15.334 30.5244 15.3357 30.5167 15.3306C30.509 15.3254 30.5098 15.3245 30.5098 15.3185C30.5121 15.31 30.515 15.3017 30.5184 15.2936C30.5212 15.2795 30.5188 15.2648 30.5116 15.2524C30.5189 15.2588 30.5247 15.2667 30.5287 15.2756C30.5334 15.2856 30.5364 15.2963 30.5373 15.3074V15.3512C30.5373 15.3658 30.5648 15.3666 30.5648 15.3787L30.5511 15.3821ZM30.4884 15.2404C30.4941 15.2445 30.4987 15.2499 30.5018 15.2562C30.5049 15.2625 30.5065 15.2694 30.5064 15.2764C30.5064 15.2876 30.5013 15.2988 30.5013 15.3082C30.4997 15.3178 30.5018 15.3277 30.5073 15.3357C30.5073 15.3357 30.5167 15.3417 30.5167 15.3486C30.5167 15.3555 30.5107 15.3606 30.5098 15.3666C30.5068 15.3606 30.5045 15.3543 30.503 15.3477C30.5022 15.3409 30.5022 15.334 30.503 15.3271C30.5021 15.3211 30.5021 15.3151 30.503 15.3091C30.506 15.2854 30.5037 15.2613 30.4961 15.2387L30.4884 15.2404ZM30.4781 15.456L30.4841 15.4637V15.4946C30.4841 15.4671 30.46 15.4543 30.466 15.4268C30.4673 15.4205 30.4693 15.4145 30.472 15.4087C30.4786 15.3942 30.481 15.3781 30.4789 15.3623V15.3563C30.4819 15.3491 30.4856 15.3421 30.4901 15.3357C30.4901 15.3357 30.4901 15.3443 30.4952 15.3469C30.5001 15.3578 30.5036 15.3694 30.5055 15.3812C30.5049 15.3931 30.5013 15.4046 30.4952 15.4147C30.4892 15.4242 30.4798 15.4311 30.4806 15.4448L30.4858 15.4551L30.4781 15.456ZM30.4858 15.2653C30.4888 15.2866 30.4858 15.3083 30.4772 15.328C30.4712 15.3391 30.4635 15.3495 30.4574 15.3589C30.4596 15.3644 30.4596 15.3705 30.4574 15.3761C30.4493 15.3749 30.4415 15.3723 30.4343 15.3684C30.4343 15.3795 30.448 15.3812 30.4549 15.3855C30.455 15.3873 30.4546 15.3891 30.4537 15.3906C30.4528 15.3922 30.4514 15.3934 30.4497 15.3941C30.4445 15.3909 30.439 15.388 30.4334 15.3855C30.4334 15.3855 30.442 15.4001 30.448 15.4053C30.454 15.4105 30.4428 15.413 30.4394 15.413C30.436 15.413 30.4248 15.3976 30.4222 15.3907C30.4197 15.3838 30.4222 15.4019 30.4162 15.407C30.4102 15.4122 30.3965 15.3873 30.3973 15.3718C30.3982 15.3563 30.4248 15.3615 30.4282 15.3486C30.4295 15.3444 30.4295 15.3399 30.4282 15.3357C30.4282 15.3357 30.4283 15.328 30.4231 15.3271C30.4179 15.3263 30.4231 15.3383 30.4231 15.3434C30.4231 15.3486 30.4179 15.3434 30.4145 15.3434H30.3655C30.3655 15.3434 30.3655 15.3323 30.3655 15.3306C30.3635 15.3361 30.3635 15.3422 30.3655 15.3477C30.3677 15.3529 30.3713 15.3574 30.3758 15.3606C30.3836 15.3606 30.3947 15.3658 30.3982 15.3726C30.3995 15.3771 30.3995 15.3819 30.3982 15.3864C30.397 15.3925 30.3942 15.3982 30.3899 15.4028C30.3857 15.4074 30.3802 15.4106 30.3741 15.4122V15.395C30.3718 15.3997 30.3692 15.4043 30.3664 15.4087C30.3664 15.4087 30.3518 15.4216 30.3475 15.4087C30.3556 15.4048 30.362 15.3981 30.3655 15.3898C30.3596 15.3907 30.3538 15.3924 30.3484 15.395C30.3423 15.395 30.3381 15.4019 30.3381 15.3898C30.3428 15.3893 30.3472 15.3875 30.3511 15.3849C30.355 15.3822 30.3582 15.3786 30.3604 15.3744C30.3525 15.3766 30.3442 15.3766 30.3363 15.3744V15.3692C30.3188 15.3486 30.309 15.3224 30.3089 15.2953C30.3092 15.2756 30.3133 15.256 30.3209 15.2378C30.323 15.232 30.3259 15.2265 30.3295 15.2215C30.3321 15.2153 30.337 15.2103 30.3432 15.2077C30.3527 15.2037 30.363 15.202 30.3733 15.2026L30.4025 15.2112C30.4154 15.2112 30.424 15.206 30.4343 15.2043C30.4471 15.2034 30.4599 15.207 30.4703 15.2146C30.4731 15.2183 30.4763 15.2218 30.4798 15.2249C30.4912 15.2369 30.4984 15.2523 30.5004 15.2687L30.4858 15.2653ZM30.2857 15.2971C30.2868 15.3062 30.2868 15.3154 30.2857 15.3245C30.2857 15.334 30.2762 15.34 30.2745 15.3503V15.3615C30.2733 15.3703 30.2733 15.3793 30.2745 15.3881C30.2704 15.3807 30.2678 15.3726 30.267 15.3641C30.2661 15.3557 30.2669 15.3472 30.2693 15.3391C30.2693 15.3271 30.2771 15.3177 30.2788 15.3057C30.2775 15.2833 30.2775 15.261 30.2788 15.2387C30.2824 15.2287 30.2877 15.2194 30.2943 15.2112C30.2943 15.2112 30.3003 15.2051 30.3046 15.206C30.3127 15.1992 30.3222 15.1944 30.3325 15.1919C30.3428 15.1893 30.3535 15.1892 30.3638 15.1914H30.3381C30.318 15.1983 30.3011 15.2124 30.2908 15.2309C30.2879 15.2386 30.2862 15.2467 30.2857 15.255C30.2872 15.2684 30.2901 15.2816 30.2943 15.2945L30.2857 15.2971ZM30.2307 15.3082C30.2397 15.2943 30.2469 15.2793 30.2522 15.2636C30.2522 15.2953 30.2264 15.3091 30.2229 15.3374C30.2208 15.3336 30.2196 15.3294 30.2196 15.325C30.2196 15.3206 30.2208 15.3163 30.2229 15.3125C30.2229 15.3203 30.2376 15.3125 30.2384 15.3065L30.2307 15.3082ZM30.259 15.2283C30.259 15.2283 30.2667 15.2215 30.2736 15.2232C30.268 15.2347 30.2653 15.2474 30.2659 15.2601H30.259C30.2568 15.2551 30.2563 15.2495 30.2577 15.2442C30.2591 15.2388 30.2623 15.2342 30.2668 15.2309L30.259 15.2283ZM30.2453 15.3254C30.2453 15.3185 30.253 15.3134 30.2556 15.3074C30.2604 15.2953 30.2633 15.2825 30.2642 15.2696C30.2736 15.3031 30.253 15.3323 30.2539 15.3623C30.2542 15.3723 30.2569 15.382 30.2616 15.3907C30.2633 15.3943 30.2642 15.3983 30.2642 15.4023C30.2642 15.4063 30.2633 15.4102 30.2616 15.4139C30.2549 15.4075 30.2494 15.3999 30.2453 15.3915C30.2428 15.3884 30.2408 15.3849 30.2393 15.3812C30.2384 15.3609 30.2432 15.3407 30.253 15.3228L30.2453 15.3254ZM30.2985 15.2309V15.2283C30.2939 15.2404 30.2899 15.2528 30.2865 15.2653C30.2857 15.2628 30.2857 15.2601 30.2865 15.2576C30.2977 15.2481 30.3003 15.2352 30.3089 15.2318L30.2985 15.2309ZM30.2848 15.1716C30.2835 15.1758 30.2835 15.1803 30.2848 15.1845C30.2806 15.1899 30.2774 15.196 30.2754 15.2026C30.2694 15.203 30.2637 15.2053 30.259 15.2089C30.2542 15.2126 30.2507 15.2175 30.2487 15.2232C30.2469 15.2296 30.2469 15.2365 30.2487 15.2429V15.2533C30.2482 15.2625 30.2458 15.2715 30.2418 15.2799C30.2367 15.288 30.2309 15.2957 30.2247 15.3031L30.2221 15.3142C30.2173 15.3258 30.2173 15.3387 30.2221 15.3503L30.2298 15.3598V15.3804C30.2287 15.3893 30.2269 15.3982 30.2247 15.407C30.2238 15.413 30.2238 15.4191 30.2247 15.425C30.2261 15.4435 30.2317 15.4614 30.241 15.4774C30.2434 15.4806 30.2454 15.4841 30.247 15.4877C30.2366 15.4834 30.2279 15.4759 30.2221 15.4663C30.2172 15.4531 30.2151 15.4391 30.2161 15.425C30.2135 15.4108 30.2101 15.3968 30.2058 15.383C30.2053 15.3752 30.2053 15.3675 30.2058 15.3598V15.3366C30.2085 15.3144 30.2131 15.2926 30.2195 15.2713C30.2239 15.258 30.2293 15.245 30.2358 15.2326C30.2462 15.211 30.2608 15.1917 30.2788 15.1759H30.2891C30.2891 15.1759 30.2968 15.1759 30.296 15.1759L30.2848 15.1716ZM30.2693 15.5453C30.2702 15.539 30.2702 15.5327 30.2693 15.5264V15.5109C30.2753 15.4938 30.259 15.4817 30.2522 15.4714C30.2444 15.4618 30.2389 15.4505 30.236 15.4385C30.233 15.4265 30.2327 15.414 30.235 15.4019C30.2436 15.4096 30.2487 15.4208 30.2573 15.4276C30.2548 15.4428 30.2569 15.4583 30.2633 15.4723C30.266 15.4782 30.2694 15.4837 30.2736 15.4886C30.2775 15.4938 30.2809 15.4993 30.2839 15.5049C30.284 15.5132 30.2816 15.5212 30.2771 15.5281C30.2733 15.537 30.2714 15.5465 30.2714 15.556C30.2714 15.5656 30.2733 15.5751 30.2771 15.584C30.2771 15.5891 30.2917 15.5934 30.2917 15.6003C30.2917 15.6072 30.2839 15.6089 30.2796 15.614C30.2715 15.608 30.265 15.6 30.2608 15.5908C30.2582 15.5842 30.2564 15.5773 30.2556 15.5702C30.2659 15.5591 30.2719 15.5548 30.2728 15.5445L30.2693 15.5453ZM30.3157 15.5634C30.3106 15.5505 30.3157 15.5324 30.3157 15.5152C30.3148 15.5054 30.3122 15.4958 30.308 15.4869C30.3002 15.4744 30.2944 15.4608 30.2908 15.4465C30.2908 15.425 30.3028 15.4147 30.308 15.3967C30.3086 15.3893 30.3086 15.3818 30.308 15.3744V15.3812C30.3074 15.3864 30.3074 15.3916 30.308 15.3967V15.4036C30.3085 15.4096 30.3085 15.4156 30.308 15.4216C30.3075 15.4293 30.3075 15.4371 30.308 15.4448C30.3084 15.4494 30.3084 15.454 30.308 15.4585C30.3059 15.4696 30.3059 15.481 30.308 15.492C30.3088 15.4986 30.3105 15.5049 30.3131 15.5109C30.3174 15.5231 30.3195 15.5359 30.3192 15.5487C30.3192 15.5608 30.3123 15.5711 30.3123 15.584C30.3252 15.5745 30.3209 15.5685 30.3192 15.5625L30.3157 15.5634ZM30.3303 15.6072C30.3366 15.6169 30.3399 15.6282 30.3398 15.6398H30.3243C30.3307 15.6292 30.3354 15.6176 30.3381 15.6055L30.3303 15.6072ZM30.3372 15.5823C30.3387 15.5723 30.341 15.5626 30.3441 15.553V15.5316C30.3441 15.5101 30.3226 15.4921 30.3286 15.4671C30.3286 15.4671 30.3286 15.4732 30.3286 15.474H30.3363C30.3423 15.4525 30.3217 15.4388 30.3295 15.4147C30.3295 15.4147 30.3355 15.4233 30.3415 15.4259C30.3441 15.4319 30.3458 15.4383 30.3466 15.4448V15.4585C30.3497 15.4689 30.3543 15.4788 30.3604 15.4877C30.3573 15.5068 30.3573 15.5263 30.3604 15.5453C30.3649 15.5532 30.3703 15.5604 30.3767 15.5668C30.377 15.5696 30.377 15.5725 30.3767 15.5754C30.3803 15.5835 30.3814 15.5924 30.3798 15.6012C30.3783 15.6099 30.3742 15.6179 30.3681 15.6243C30.3625 15.6257 30.3576 15.629 30.3544 15.6338C30.3544 15.6338 30.3544 15.6424 30.3475 15.645C30.3406 15.6475 30.3475 15.6329 30.3475 15.6278C30.3485 15.6241 30.3485 15.6203 30.3475 15.6166C30.3407 15.6062 30.3382 15.5936 30.3406 15.5814L30.3372 15.5823ZM30.3776 15.5204C30.3776 15.5256 30.3707 15.529 30.3724 15.535C30.3647 15.5247 30.3724 15.5118 30.3724 15.4955C30.3724 15.4792 30.357 15.4706 30.3638 15.4542C30.369 15.4542 30.3698 15.462 30.3724 15.468C30.372 15.47 30.372 15.472 30.3724 15.474V15.4817C30.3724 15.4817 30.3776 15.4895 30.3784 15.492C30.3793 15.4946 30.3733 15.5032 30.3733 15.5101C30.3733 15.517 30.3862 15.5178 30.3853 15.5204H30.3776ZM30.4574 15.6304C30.4636 15.6181 30.4666 15.6045 30.466 15.5908C30.4644 15.578 30.4644 15.565 30.466 15.5522C30.4708 15.5381 30.4771 15.5245 30.4849 15.5118C30.4903 15.5031 30.4941 15.4935 30.4961 15.4834C30.4974 15.4772 30.4974 15.4708 30.4961 15.4646C30.4927 15.4582 30.4898 15.4516 30.4875 15.4448C30.4882 15.439 30.4902 15.4333 30.4935 15.4285L30.5038 15.4173V15.4113C30.5068 15.405 30.5091 15.3983 30.5107 15.3915C30.5078 15.4066 30.5078 15.422 30.5107 15.4371C30.5103 15.4396 30.5103 15.4422 30.5107 15.4448C30.5104 15.4474 30.5104 15.45 30.5107 15.4525C30.5164 15.4592 30.521 15.4668 30.5244 15.4749C30.5262 15.4805 30.5262 15.4865 30.5244 15.492C30.5241 15.4966 30.5241 15.5012 30.5244 15.5058C30.5253 15.5132 30.5253 15.5207 30.5244 15.5281C30.5244 15.5341 30.5176 15.5376 30.515 15.5462C30.5142 15.5545 30.5142 15.5628 30.515 15.5711C30.5158 15.5762 30.5158 15.5814 30.515 15.5866C30.515 15.6003 30.515 15.6132 30.503 15.6201L30.4944 15.6252C30.4917 15.6279 30.4885 15.63 30.4849 15.6312C30.4841 15.6295 30.4837 15.6276 30.4837 15.6256C30.4837 15.6237 30.4841 15.6218 30.4849 15.6201C30.491 15.6037 30.5107 15.5831 30.4961 15.5651C30.4966 15.5753 30.4948 15.5856 30.4909 15.5951C30.487 15.5986 30.4835 15.6027 30.4806 15.6072C30.4806 15.6072 30.4806 15.6072 30.4806 15.6123C30.4815 15.6223 30.4815 15.6324 30.4806 15.6424C30.4763 15.6487 30.4699 15.6532 30.4625 15.6553C30.4551 15.6573 30.4472 15.6567 30.4403 15.6536C30.4536 15.6487 30.4653 15.64 30.4738 15.6286L30.4574 15.6304ZM30.5236 15.1733C30.5276 15.1735 30.5316 15.1747 30.535 15.1768C30.5385 15.1789 30.5413 15.1819 30.5433 15.1854C30.555 15.2129 30.5634 15.2418 30.5683 15.2713C30.5683 15.2764 30.5734 15.2824 30.5751 15.2885C30.5773 15.3084 30.5773 15.3286 30.5751 15.3486V15.4139C30.5751 15.4491 30.5837 15.4817 30.582 15.5195V15.5341C30.582 15.5341 30.582 15.529 30.582 15.5264C30.5742 15.5116 30.5721 15.4945 30.576 15.4783C30.577 15.4587 30.5738 15.439 30.5665 15.4207C30.5637 15.4166 30.5611 15.4123 30.5588 15.4079C30.5584 15.4047 30.5584 15.4015 30.5588 15.3984C30.564 15.3752 30.5459 15.358 30.5468 15.3357V15.3142C30.5456 15.2921 30.5379 15.2709 30.5244 15.2533C30.5244 15.2472 30.5373 15.2421 30.5399 15.2326C30.5424 15.223 30.5424 15.213 30.5399 15.2034C30.5386 15.1977 30.5359 15.1924 30.5322 15.188C30.5274 15.1854 30.5221 15.1841 30.5167 15.1841C30.5113 15.1841 30.506 15.1854 30.5013 15.188L30.4961 15.194L30.4858 15.1991C30.4914 15.1927 30.4983 15.1876 30.506 15.1839C30.5136 15.1802 30.522 15.1781 30.5305 15.1776L30.5236 15.1733ZM30.4617 15.1295C30.4712 15.1295 30.4738 15.1381 30.4815 15.1416C30.4892 15.145 30.4944 15.1416 30.5004 15.1416C30.5064 15.1416 30.5081 15.1485 30.5124 15.1536C30.5167 15.1588 30.5176 15.1536 30.5124 15.1605C30.5073 15.1674 30.5073 15.1605 30.5047 15.1605L30.4849 15.1768C30.4777 15.1827 30.4692 15.1868 30.46 15.1888H30.4282C30.4231 15.1888 30.4386 15.1837 30.4437 15.1811C30.4489 15.1785 30.4703 15.1699 30.4695 15.1536C30.4686 15.1373 30.46 15.1364 30.4583 15.1287L30.4617 15.1295ZM30.4179 15.1201C30.423 15.1188 30.4283 15.1188 30.4334 15.1201H30.4463C30.4524 15.1258 30.4579 15.1321 30.4626 15.139C30.4643 15.142 30.4651 15.1454 30.4651 15.1489C30.4651 15.1523 30.4643 15.1557 30.4626 15.1587C30.4564 15.1641 30.4495 15.1684 30.442 15.1716H30.4334C30.4334 15.1716 30.4274 15.1794 30.4222 15.1794C30.4171 15.1794 30.4222 15.1725 30.4222 15.1699L30.4291 15.1613C30.4377 15.1613 30.4566 15.1562 30.4566 15.1467C30.4566 15.1373 30.4566 15.1407 30.4497 15.1355C30.4496 15.1335 30.4496 15.1315 30.4497 15.1295C30.4448 15.1254 30.4393 15.1219 30.4334 15.1192L30.4257 15.1141C30.4241 15.1141 30.4226 15.1134 30.4214 15.1123C30.4203 15.1112 30.4197 15.1097 30.4197 15.1081L30.4179 15.1201ZM30.3166 15.0926C30.3389 15.0978 30.3604 15.1089 30.3827 15.1149C30.3963 15.1179 30.4093 15.1228 30.4214 15.1295L30.4282 15.1347L30.4403 15.1407H30.43C30.41 15.1283 30.3878 15.1199 30.3647 15.1158C30.3689 15.117 30.3734 15.117 30.3776 15.1158C30.4001 15.1233 30.4212 15.1343 30.4403 15.1484C30.4403 15.1484 30.4489 15.1484 30.4489 15.1562C30.4474 15.1573 30.4456 15.1579 30.4437 15.1579C30.4418 15.1579 30.4401 15.1573 30.4386 15.1562C30.4167 15.1381 30.3908 15.1257 30.363 15.1201C30.363 15.1261 30.369 15.1261 30.3724 15.127C30.3874 15.1304 30.4017 15.1365 30.4145 15.145L30.4274 15.1536C30.4274 15.1536 30.4377 15.1536 30.4394 15.1622C30.4411 15.1708 30.4222 15.1622 30.4162 15.1622L30.399 15.1527L30.3578 15.1416H30.3355C30.3303 15.1416 30.3243 15.1347 30.3174 15.1347C30.3106 15.1347 30.3174 15.1416 30.3286 15.1441H30.3587C30.3655 15.1441 30.3793 15.1493 30.3793 15.1527C30.3793 15.1562 30.3535 15.1527 30.3458 15.1527C30.3318 15.1541 30.3177 15.1541 30.3037 15.1527C30.2928 15.1524 30.2824 15.1481 30.2745 15.1407C30.2738 15.1376 30.2738 15.1344 30.2745 15.1313V15.1184C30.2745 15.1132 30.2693 15.1184 30.2745 15.1106C30.2796 15.1029 30.2745 15.1106 30.2822 15.1106H30.29C30.29 15.1106 30.29 15.1046 30.3011 15.1106C30.3032 15.1055 30.3066 15.101 30.311 15.0975C30.3154 15.0941 30.3205 15.0918 30.326 15.0909L30.3166 15.0926ZM30.3046 15.0737C30.3055 15.0733 30.3065 15.0731 30.3075 15.0731C30.3086 15.0731 30.3096 15.0733 30.3106 15.0737C30.3111 15.0754 30.3111 15.0772 30.3106 15.0789C30.3106 15.0849 30.3037 15.0789 30.2977 15.084C30.2917 15.0892 30.2925 15.0892 30.2882 15.09C30.2839 15.0909 30.2882 15.09 30.2831 15.09H30.2676H30.2608H30.2487C30.2487 15.09 30.2341 15.0849 30.2393 15.0797C30.2444 15.0746 30.253 15.0797 30.259 15.0797H30.2788C30.2888 15.0802 30.2988 15.0784 30.308 15.0746L30.3046 15.0737ZM30.3046 15.0574C30.3046 15.0626 30.3045 15.0694 30.2985 15.072C30.2847 15.0792 30.2694 15.083 30.2539 15.0832C30.2478 15.0832 30.2367 15.0832 30.241 15.0746C30.2736 15.0746 30.3028 15.0746 30.3114 15.0557L30.3046 15.0574ZM30.2565 14.9182C30.2696 14.9566 30.2808 14.9956 30.29 15.0351C30.29 15.0411 30.296 15.0514 30.29 15.0557C30.2839 15.06 30.2711 15.0668 30.2642 15.0677C30.2597 15.0687 30.255 15.0687 30.2504 15.0677L30.2418 15.0514C30.229 15.0239 30.2015 14.9414 30.1903 14.9122C30.1872 14.9019 30.1852 14.8912 30.1843 14.8804V14.8435C30.2003 14.8367 30.2176 14.8333 30.235 14.8332C30.2342 14.8413 30.236 14.8494 30.2401 14.8564C30.2453 14.8676 30.2401 14.865 30.2401 14.8718V14.8882C30.2395 14.8924 30.2395 14.8968 30.2401 14.9011C30.2457 14.9074 30.2524 14.9126 30.2599 14.9165L30.2565 14.9182ZM30.2504 14.7782L30.2324 14.7851C30.2122 14.7908 30.1928 14.7992 30.1748 14.81C30.1697 14.81 30.1671 14.8186 30.1619 14.816C30.1632 14.8124 30.1656 14.8094 30.1688 14.8074L30.1783 14.8022C30.192 14.7945 30.2064 14.7879 30.2212 14.7825C30.2296 14.7814 30.2378 14.7788 30.2453 14.7748L30.2504 14.7782ZM30.2504 14.7705H30.2341V14.7576C30.2362 14.7567 30.2383 14.7563 30.2406 14.7563C30.2428 14.7563 30.245 14.7567 30.247 14.7576C30.2487 14.7619 30.2513 14.7657 30.2547 14.7688L30.2504 14.7705ZM30.2161 14.6227C30.2168 14.6264 30.2168 14.6302 30.2161 14.6339C30.2215 14.6527 30.2253 14.672 30.2272 14.6914C30.2285 14.701 30.2305 14.7105 30.2333 14.7198C30.2332 14.729 30.2352 14.7381 30.2393 14.7464H30.2281C30.2055 14.7478 30.1831 14.7509 30.1611 14.7559C30.1607 14.7516 30.1607 14.7473 30.1611 14.743V14.731C30.1611 14.731 30.1516 14.7121 30.1499 14.7215C30.1494 14.7246 30.1494 14.7278 30.1499 14.731V14.7636C30.1515 14.7779 30.1515 14.7923 30.1499 14.8065H30.1439L30.1293 14.8117C30.1225 14.813 30.1155 14.813 30.1087 14.8117L30.0881 14.8065L30.0718 14.798C30.0546 14.792 30.0528 14.8091 30.0357 14.8057C30.0421 14.7904 30.0505 14.776 30.0606 14.7627C30.0723 14.7431 30.0855 14.7245 30.1001 14.7069C30.106 14.6994 30.1123 14.6922 30.119 14.6854C30.1266 14.6764 30.1346 14.6678 30.143 14.6597C30.1457 14.6564 30.1493 14.654 30.1534 14.6528C30.1514 14.6668 30.1439 14.6794 30.1327 14.688L30.1241 14.6975C30.1241 14.6975 30.1156 14.6975 30.1147 14.7043C30.1147 14.7121 30.125 14.7146 30.131 14.7103C30.1387 14.7031 30.1449 14.6943 30.1491 14.6846C30.1634 14.6568 30.1833 14.6322 30.2075 14.6124C30.2144 14.6124 30.2204 14.6219 30.2212 14.6262L30.2161 14.6227ZM29.8793 15.2481H29.8647V14.9337L29.8828 14.92C29.884 14.9345 29.884 14.9492 29.8828 14.9638C29.884 14.9789 29.884 14.9941 29.8828 15.0093C29.8837 15.0144 29.8837 15.0196 29.8828 15.0247C29.8837 15.0296 29.8837 15.0345 29.8828 15.0393C29.8838 15.0468 29.8838 15.0543 29.8828 15.0617V15.0711C29.8814 15.1285 29.8831 15.1858 29.8879 15.2429L29.8793 15.2481ZM29.869 15.2739V15.3769C29.8699 15.3858 29.8699 15.3947 29.869 15.4036C29.8651 15.4021 29.8609 15.4021 29.857 15.4036C29.8622 15.3563 29.8682 15.3091 29.8733 15.2618C29.8724 15.2652 29.8724 15.2688 29.8733 15.2722L29.869 15.2739ZM29.9197 14.9706C29.9222 14.9647 29.9251 14.959 29.9283 14.9535C29.9334 14.942 29.94 14.9313 29.9481 14.9217C29.9522 14.9158 29.9568 14.9104 29.9618 14.9054C29.9774 14.908 29.9932 14.9097 30.0091 14.9105H30.0245C30.0297 14.9105 30.034 14.9165 30.0408 14.9182C30.0483 14.9191 30.0557 14.9191 30.0632 14.9182C30.0563 14.9275 30.0482 14.9359 30.0391 14.9431C30.0308 14.9502 30.023 14.958 30.0159 14.9663C30.0005 14.9835 29.985 14.999 29.9704 15.0179L29.9292 15.0728C29.9188 15.0874 29.9103 15.1029 29.9017 15.1184C29.8998 15.124 29.8966 15.129 29.8922 15.133C29.8924 15.1042 29.895 15.0754 29.9 15.0471C29.9018 15.0338 29.9053 15.0209 29.9103 15.0084C29.9103 14.9955 29.918 14.9835 29.9223 14.9724L29.9197 14.9706ZM29.9103 14.8959C29.9098 14.8919 29.9098 14.8878 29.9103 14.8839C29.9124 14.8766 29.9156 14.8696 29.9197 14.8633C29.9207 14.8701 29.9207 14.877 29.9197 14.8839C29.9177 14.8952 29.9177 14.9069 29.9197 14.9182C29.922 14.9252 29.922 14.9327 29.9197 14.9397L29.9086 14.9603C29.9059 14.9384 29.9059 14.9162 29.9086 14.8942L29.9103 14.8959ZM29.9627 14.9028V14.8676C29.9635 14.8787 29.9635 14.8899 29.9627 14.9011V14.9028ZM30.1078 14.8323L30.1267 14.8254C30.1249 14.8354 30.1197 14.8445 30.1121 14.8512C30.1044 14.8512 30.1001 14.8512 30.0924 14.8512C30.0842 14.8447 30.0743 14.8408 30.0639 14.8399C30.0535 14.839 30.0431 14.8411 30.034 14.8461C30.0288 14.8461 30.0228 14.8547 30.0151 14.8521C30.0073 14.8495 30.0228 14.8426 30.0279 14.8392C30.0379 14.8328 30.0482 14.8271 30.0589 14.822C30.0644 14.8199 30.0705 14.8199 30.076 14.822C30.076 14.8306 30.0812 14.8366 30.0941 14.834H30.1018L30.1078 14.8323ZM29.9747 15.157C29.9652 15.157 29.9627 15.1708 29.9584 15.1785C29.9541 15.1862 29.9438 15.2103 29.936 15.2292C29.9206 15.2661 29.906 15.3074 29.8914 15.346C29.8914 15.346 29.8914 15.3555 29.8854 15.358C29.884 15.3524 29.884 15.3465 29.8854 15.3409V15.2498C29.8862 15.239 29.8862 15.228 29.8854 15.2172C29.8854 15.2091 29.8854 15.2011 29.8854 15.1931C29.8845 15.186 29.8845 15.1788 29.8854 15.1716L29.8905 15.1519V15.1424C29.9004 15.1158 29.914 15.0906 29.9309 15.0677C29.9441 15.0476 29.9591 15.0286 29.9756 15.011C29.9948 14.9884 30.0167 14.9682 30.0408 14.9509C30.0554 14.9408 30.0689 14.9293 30.0812 14.9165C30.0812 14.9165 30.0881 14.9062 30.0932 14.9036C30.0934 14.9092 30.0916 14.9147 30.0881 14.9191C30.0801 14.931 30.0715 14.9425 30.0623 14.9535C30.046 14.9758 30.028 14.999 30.0125 15.0239L29.991 15.0634C29.9687 15.1012 29.9489 15.1416 29.9266 15.1802C29.9187 15.1935 29.9124 15.2076 29.9077 15.2223C29.9077 15.2223 29.9128 15.2163 29.9154 15.2129C29.9463 15.1613 29.9756 15.1081 30.0082 15.0574C30.0248 15.0299 30.0434 15.0038 30.064 14.9792C30.0789 14.9601 30.0924 14.94 30.1044 14.9191L30.1173 14.8993C30.1173 14.8993 30.125 14.9079 30.1241 14.9157C30.1233 14.9234 30.1242 14.9251 30.1181 14.9294C30.1121 14.9337 30.107 14.9569 30.1001 14.9698L30.0743 15.0205C30.0572 15.0565 30.0383 15.0883 30.0202 15.1201C30.0099 15.1364 30.0005 15.1527 29.9919 15.1699C29.967 15.2154 29.9412 15.2558 29.9171 15.3065C29.9171 15.3065 29.9171 15.316 29.9086 15.316C29.9093 15.3108 29.9111 15.3059 29.9137 15.3014C29.924 15.2773 29.9352 15.2515 29.9463 15.2283C29.9547 15.2122 29.9613 15.1952 29.9661 15.1776C29.9798 15.1751 29.9833 15.1656 29.9747 15.1605V15.157ZM30.0228 14.8942C30.0209 14.8901 30.02 14.8857 30.02 14.8813C30.02 14.8768 30.0209 14.8725 30.0228 14.8684C30.0257 14.8639 30.0297 14.8602 30.0343 14.8575C30.0389 14.8549 30.0441 14.8533 30.0494 14.8529C30.0565 14.8518 30.0638 14.8527 30.0705 14.8554C30.0771 14.8581 30.0829 14.8626 30.0872 14.8684C30.0902 14.8755 30.0905 14.8833 30.0881 14.8906C30.0858 14.8978 30.0809 14.904 30.0743 14.9079C30.0657 14.9113 30.0561 14.9119 30.0471 14.9094C30.0381 14.9069 30.0302 14.9016 30.0245 14.8942H30.0228ZM30.0005 14.8547C29.9978 14.8564 29.9947 14.8574 29.9914 14.8574C29.9882 14.8574 29.9851 14.8564 29.9824 14.8547C29.9824 14.8486 29.9902 14.8478 29.9936 14.8452L30.0048 14.8358C30.0129 14.8345 30.0205 14.8313 30.0271 14.8263C30.0204 14.8366 30.0123 14.8458 30.003 14.8538L30.0005 14.8547ZM30.0005 14.8985C29.9927 14.8985 29.9936 14.8925 29.9927 14.8847C29.9919 14.877 29.9867 14.8667 29.9927 14.8667C29.9972 14.8765 30.0004 14.8869 30.0022 14.8976L30.0005 14.8985ZM29.8914 15.4697V15.541C29.8715 15.5369 29.8511 15.5369 29.8312 15.541H29.8243C29.8243 15.5445 29.8251 15.5479 29.8266 15.551C29.8281 15.5541 29.8303 15.5569 29.8329 15.5591H29.8424C29.8498 15.5574 29.8574 15.5574 29.8647 15.5591L29.875 15.5642H29.8854C29.8922 15.5694 29.8957 15.578 29.9017 15.5823C29.9077 15.5865 29.9077 15.6209 29.9103 15.6398C29.9122 15.6547 29.9157 15.6694 29.9206 15.6836H29.8544C29.8364 15.6166 29.8201 15.5479 29.8029 15.48C29.8111 15.4756 29.8202 15.473 29.8295 15.4723L29.8776 15.4654C29.8826 15.4672 29.887 15.4701 29.8905 15.474L29.8914 15.4697ZM29.9232 15.5943C29.9307 15.5795 29.9388 15.5648 29.9472 15.5505C29.9609 15.5298 29.9738 15.5101 29.9893 15.4903C29.9944 15.4835 29.9996 15.4775 30.0039 15.4714C30.0082 15.4654 30.0185 15.4517 30.0254 15.4422C30.0322 15.4328 30.0254 15.4345 30.0331 15.4328C30.0408 15.4311 30.0331 15.4431 30.0331 15.4474C30.0288 15.4717 30.0222 15.4956 30.0133 15.5187C30.0133 15.5187 30.0005 15.541 30.0073 15.5445C30.0142 15.5479 30.0185 15.5324 30.0194 15.529C30.0273 15.5099 30.0341 15.4904 30.04 15.4706C30.046 15.45 30.0529 15.4302 30.0597 15.4104L30.0683 15.3915C30.0718 15.389 30.0747 15.3858 30.0769 15.3821C30.0762 15.3945 30.0745 15.4069 30.0718 15.419C30.0702 15.4383 30.0664 15.4573 30.0606 15.4757C30.0606 15.4946 30.0503 15.5187 30.0434 15.5393C30.0365 15.5599 30.0383 15.5599 30.0348 15.5702L30.003 15.6561C30.0005 15.6608 29.9985 15.6657 29.997 15.6707C29.9973 15.6744 29.9963 15.6781 29.9943 15.6812C29.9923 15.6843 29.9893 15.6866 29.9859 15.6879H29.9704C29.9542 15.6844 29.9389 15.6773 29.9257 15.6673C29.9231 15.6569 29.9214 15.6462 29.9206 15.6355C29.9171 15.6217 29.9171 15.6072 29.9206 15.5934L29.9232 15.5943ZM30.034 15.3563C30.0288 15.3675 30.0219 15.3778 30.0159 15.3872C30.0105 15.3972 30.0039 15.4065 29.9962 15.4147C29.9807 15.4319 29.967 15.4491 29.9524 15.4671C29.9395 15.4822 29.9275 15.498 29.9163 15.5144C29.9163 15.5152 29.9161 15.5161 29.9158 15.5169C29.9154 15.5177 29.9149 15.5184 29.9142 15.519C29.9136 15.5195 29.9128 15.52 29.912 15.5202C29.9111 15.5204 29.9102 15.5205 29.9094 15.5204C29.9088 15.5118 29.9088 15.5032 29.9094 15.4946C29.9076 15.466 29.9076 15.4373 29.9094 15.4087C29.9108 15.3918 29.9158 15.3754 29.924 15.3606C29.9264 15.3556 29.9284 15.3505 29.93 15.3452C29.9412 15.3228 29.9515 15.2962 29.9627 15.2764L29.9936 15.2249C30.0164 15.1923 30.0374 15.1585 30.0563 15.1235C30.0718 15.0969 30.0829 15.0686 30.0967 15.0376C30.1104 15.0067 30.1164 15.0016 30.1241 14.9835C30.1304 14.97 30.1391 14.9577 30.1499 14.9474C30.1499 14.9474 30.1499 14.9629 30.1499 14.9663C30.1499 14.9698 30.1499 14.9809 30.1448 14.9844C30.1302 15.0428 30.113 15.0978 30.0932 15.1562C30.0932 15.1673 30.0846 15.1768 30.0812 15.188C30.0781 15.1988 30.0744 15.2094 30.07 15.2198C30.07 15.2292 30.064 15.2292 30.0623 15.2335C30.0589 15.2376 30.0563 15.2422 30.0546 15.2472C30.0492 15.2558 30.0443 15.2647 30.04 15.2739C30.0291 15.289 30.0201 15.3055 30.0133 15.3228C30.0133 15.3288 30.0133 15.3392 30.0133 15.3417C30.0133 15.3443 30.0262 15.3314 30.0297 15.328C30.0337 15.3217 30.0372 15.3151 30.04 15.3082C30.0612 15.2669 30.0796 15.2241 30.0949 15.1802C30.113 15.1347 30.1259 15.0892 30.1396 15.0419C30.1417 15.0297 30.1449 15.0176 30.1491 15.0058C30.1491 14.993 30.1491 14.9964 30.1491 14.9947C30.1499 15.009 30.1499 15.0233 30.1491 15.0376C30.1475 15.0509 30.1443 15.0638 30.1396 15.0763C30.1327 15.102 30.1259 15.1287 30.1199 15.1527C30.1061 15.2011 30.0883 15.2482 30.0666 15.2936C30.0614 15.3048 30.0571 15.3151 30.0511 15.3263C30.0451 15.3374 30.0348 15.3477 30.0305 15.3589L30.034 15.3563ZM30.1508 14.8787V14.8564C30.1513 14.8627 30.1513 14.869 30.1508 14.8753C30.1517 14.8787 30.1517 14.8822 30.1508 14.8856V14.8787ZM30.1508 14.5978C30.1421 14.6079 30.132 14.6166 30.1207 14.6236C30.0984 14.6408 30.0778 14.6554 30.0563 14.6734L30.0417 14.6872C30.034 14.6949 30.0245 14.7 30.0279 14.7121C30.0314 14.7241 30.0408 14.7035 30.046 14.6992L30.0984 14.6511L30.131 14.6253L30.1508 14.6107L30.1688 14.6004H30.1808C30.1877 14.6004 30.198 14.5901 30.2032 14.6004C30.2083 14.6107 30.1886 14.6081 30.1826 14.6133L30.1525 14.6348L30.143 14.6433C30.1298 14.6547 30.1177 14.6673 30.107 14.6811L30.0881 14.7026C30.076 14.7181 30.0657 14.7335 30.0546 14.7499C30.0345 14.7828 30.0112 14.8136 29.985 14.8418C29.9773 14.8487 29.9567 14.8598 29.9532 14.8418C29.9578 14.8427 29.9624 14.8427 29.967 14.8418C29.9758 14.8363 29.9835 14.829 29.9893 14.8203C29.9893 14.8143 29.9996 14.8083 29.997 14.8031C29.9944 14.798 29.9859 14.8109 29.9816 14.8151C29.9757 14.82 29.9685 14.823 29.961 14.8237C29.9403 14.8237 29.9309 14.8117 29.9309 14.7894C29.9301 14.7774 29.9301 14.7653 29.9309 14.7533C29.9355 14.7448 29.942 14.7375 29.9498 14.7318L29.9893 14.7026L30.0022 14.6923C30.0108 14.6854 30.0211 14.6803 30.0288 14.6734C30.0506 14.6592 30.0733 14.6463 30.0967 14.6348L30.1276 14.6184L30.1508 14.5978ZM30.1018 14.5386V14.5171C30.1018 14.5299 30.107 14.5403 30.107 14.5514C30.1051 14.5618 30.1013 14.5717 30.0958 14.5806C30.0717 14.5923 30.0482 14.6052 30.0254 14.6193C30.0178 14.6039 30.0128 14.5874 30.0108 14.5703C30.0092 14.5635 30.0092 14.5565 30.0108 14.5497V14.5411L30.0228 14.5523C30.0273 14.5572 30.0327 14.5612 30.0388 14.564C30.0448 14.5668 30.0513 14.5683 30.058 14.5686H30.0735C30.0797 14.5699 30.0861 14.5699 30.0924 14.5686C30.0945 14.5668 30.0963 14.5646 30.0975 14.5621C30.0986 14.5595 30.0992 14.5568 30.0992 14.554L30.1018 14.5386ZM30.1147 14.5721V14.5557L30.1302 14.5626C30.1302 14.5703 30.1199 14.5712 30.1147 14.5746V14.5721ZM29.9944 14.4002C29.9953 14.3928 29.9973 14.3856 30.0005 14.3788L30.0065 14.3685C30.0204 14.3553 30.0371 14.3456 30.0554 14.3401C30.069 14.3433 30.0815 14.3501 30.0915 14.3599C30.1032 14.3684 30.1115 14.3809 30.1147 14.3951V14.4148C30.1192 14.4205 30.1219 14.4274 30.1224 14.4346C30.1219 14.4508 30.1181 14.4668 30.1113 14.4815C30.1045 14.4963 30.0949 14.5095 30.0829 14.5205C30.0719 14.5297 30.0577 14.5343 30.0434 14.5334C30.0303 14.5299 30.0183 14.5235 30.0082 14.5145C30.0006 14.5058 29.9939 14.4963 29.9884 14.4861C29.9791 14.4709 29.9743 14.4533 29.9747 14.4355C29.9844 14.4283 29.9914 14.4179 29.9944 14.4062V14.4002ZM29.9944 14.5523C29.9951 14.5703 29.9977 14.5881 30.0022 14.6056C30.0048 14.611 30.0065 14.6168 30.0073 14.6227C30.0015 14.6274 29.9952 14.6315 29.9884 14.6348C29.9794 14.6109 29.9753 14.5855 29.9764 14.56L29.9944 14.5523ZM29.9747 14.6579C29.9747 14.6639 29.9919 14.664 29.9876 14.6743C29.9824 14.6825 29.9749 14.6891 29.9661 14.6932H29.9644C29.9644 14.6863 29.9644 14.6846 29.9713 14.6803C29.9727 14.6778 29.9734 14.675 29.9734 14.6721C29.9734 14.6693 29.9727 14.6664 29.9713 14.664H29.979L29.9747 14.6579ZM29.869 14.7438C29.8709 14.7185 29.8755 14.6934 29.8828 14.6691C29.8863 14.6488 29.8927 14.6292 29.9017 14.6107C29.9043 14.6058 29.9078 14.6015 29.912 14.5978V14.5918L29.93 14.5781L29.9532 14.5669C29.9534 14.5848 29.9554 14.6027 29.9592 14.6202C29.9606 14.629 29.9629 14.6376 29.9661 14.6459L29.9275 14.6734C29.9275 14.6734 29.9274 14.6631 29.9206 14.6605C29.9137 14.658 29.9146 14.6682 29.9146 14.6734V14.7215C29.9119 14.734 29.9102 14.7466 29.9094 14.7593C29.9089 14.7642 29.9089 14.7691 29.9094 14.7739C29.8908 14.768 29.8719 14.7634 29.8527 14.7602C29.8576 14.7553 29.8631 14.7509 29.869 14.7473V14.7438ZM29.8561 14.7997C29.8771 14.8011 29.8975 14.8076 29.9154 14.8186C29.8962 14.811 29.8764 14.8049 29.8561 14.8005V14.7997ZM29.7376 14.8426V14.8186C29.7642 14.8232 29.7906 14.8292 29.8166 14.8366L29.8329 14.8426C29.8329 14.8426 29.8407 14.8504 29.845 14.8529C29.8493 14.8555 29.8518 14.8529 29.8544 14.8529C29.857 14.8529 29.8544 14.8315 29.8398 14.8315C29.8252 14.8315 29.8398 14.8229 29.8398 14.8194H29.8527C29.8682 14.8226 29.883 14.8284 29.8965 14.8366C29.8915 14.8535 29.8849 14.8699 29.8768 14.8856C29.8699 14.8925 29.8682 14.9045 29.8579 14.9062C29.8493 14.9075 29.8406 14.9075 29.8321 14.9062L29.808 14.9002L29.7866 14.8925C29.7642 14.8839 29.741 14.8727 29.7196 14.8641C29.7342 14.8641 29.7402 14.8581 29.7427 14.8521L29.7376 14.8426ZM29.729 14.8074H29.735C29.735 14.8074 29.7256 14.8177 29.735 14.8212C29.7445 14.8246 29.7281 14.8212 29.729 14.8323C29.728 14.8337 29.7274 14.8354 29.7274 14.8371C29.7274 14.8388 29.728 14.8404 29.729 14.8418L29.723 14.8478C29.7199 14.8519 29.7157 14.8552 29.711 14.8572C29.705 14.8572 29.711 14.8572 29.711 14.8521C29.7222 14.8414 29.7308 14.8281 29.7359 14.8134L29.729 14.8074ZM29.7135 14.7997H29.7187C29.7199 14.8046 29.7201 14.8098 29.7192 14.8148C29.7183 14.8199 29.7164 14.8246 29.7135 14.8289C29.7099 14.838 29.7036 14.8458 29.6955 14.8512H29.6843L29.6938 14.8409C29.7043 14.8307 29.712 14.818 29.7161 14.804L29.7135 14.7997ZM29.5976 14.7138C29.5976 14.7138 29.5976 14.7138 29.6036 14.7198C29.6096 14.7237 29.6151 14.7283 29.6199 14.7335H29.6002C29.595 14.7335 29.595 14.7172 29.6002 14.7164L29.5976 14.7138ZM29.6345 14.7559C29.6319 14.7565 29.6292 14.7561 29.6268 14.7548C29.6244 14.7536 29.6226 14.7515 29.6216 14.749C29.6117 14.7452 29.6007 14.7452 29.5907 14.749C29.5907 14.7267 29.6431 14.7378 29.6388 14.7584L29.6345 14.7559ZM29.5924 14.7559H29.6036C29.6124 14.7556 29.621 14.7587 29.6277 14.7645C29.6354 14.7731 29.6405 14.7696 29.6397 14.773C29.6388 14.7765 29.6397 14.773 29.6311 14.773C29.6234 14.7683 29.6143 14.7662 29.6053 14.767C29.5959 14.767 29.5976 14.767 29.5942 14.767C29.5907 14.767 29.5942 14.7602 29.5942 14.7576L29.5924 14.7559ZM29.5924 14.7756C29.5993 14.7679 29.6139 14.7756 29.6225 14.7756C29.6311 14.7756 29.6337 14.7756 29.6311 14.7851C29.6285 14.7945 29.6062 14.7799 29.5967 14.7851C29.5959 14.7826 29.5959 14.7799 29.5967 14.7773L29.5924 14.7756ZM29.613 14.798C29.613 14.798 29.6079 14.798 29.6053 14.8074C29.6027 14.8169 29.5942 14.7911 29.6053 14.7885C29.6165 14.7859 29.6371 14.7885 29.6371 14.7962C29.6371 14.804 29.6233 14.7962 29.6173 14.7962L29.613 14.798ZM29.6311 14.8057C29.6311 14.8057 29.6397 14.8057 29.6405 14.7962C29.6414 14.7868 29.6405 14.7894 29.6405 14.7851C29.6405 14.7808 29.6474 14.792 29.6517 14.7962C29.656 14.8005 29.662 14.8065 29.6654 14.8065C29.6689 14.8065 29.6783 14.8065 29.6758 14.7988C29.6732 14.7911 29.6646 14.7988 29.6611 14.7988C29.6549 14.7932 29.6502 14.7861 29.6474 14.7782C29.6488 14.7762 29.6495 14.7738 29.6495 14.7713C29.6495 14.7689 29.6488 14.7665 29.6474 14.7645C29.6478 14.7613 29.6476 14.758 29.6467 14.7549C29.6459 14.7518 29.6443 14.7489 29.6423 14.7464L29.6654 14.7593C29.6729 14.7634 29.6792 14.7692 29.684 14.7762C29.6888 14.7832 29.6918 14.7913 29.6929 14.7997C29.6981 14.7997 29.7058 14.8057 29.7093 14.8108C29.7087 14.8167 29.707 14.8224 29.7042 14.8275C29.7013 14.8327 29.6975 14.8373 29.6929 14.8409L29.6749 14.828C29.6699 14.8308 29.6643 14.8322 29.6586 14.8322C29.6529 14.8322 29.6473 14.8308 29.6423 14.828C29.6405 14.8248 29.6395 14.821 29.6395 14.8173C29.6395 14.8135 29.6405 14.8098 29.6423 14.8065L29.6311 14.8057ZM29.7565 15.2979C29.7436 15.2464 29.7333 15.1957 29.7196 15.145C29.7181 15.132 29.7149 15.1193 29.7101 15.1072C29.706 15.0945 29.7025 15.0816 29.6998 15.0686C29.6826 14.9913 29.6629 14.9148 29.6448 14.8392C29.6574 14.839 29.6699 14.841 29.6818 14.8452C29.6921 14.8512 29.6818 14.865 29.6972 14.8641C29.6982 14.8689 29.7 14.8736 29.7024 14.8779C29.709 14.8804 29.7164 14.8804 29.723 14.8779C29.7677 14.9004 29.815 14.9171 29.8639 14.9277C29.8639 14.9818 29.8587 15.0385 29.8579 15.0995C29.86 15.1189 29.86 15.1385 29.8579 15.1579C29.8574 15.1949 29.8548 15.2319 29.8501 15.2687C29.8501 15.2953 29.8433 15.3228 29.8407 15.3486V15.3778C29.8381 15.3865 29.8381 15.3957 29.8407 15.4044C29.8419 15.4071 29.8441 15.4092 29.8467 15.4104C29.8579 15.419 29.8776 15.4259 29.8896 15.4336C29.8901 15.4373 29.8901 15.4411 29.8896 15.4448C29.859 15.4469 29.8285 15.4515 29.7986 15.4585C29.7814 15.4061 29.7677 15.3572 29.7565 15.3057V15.2979ZM29.8295 15.8829C29.835 15.8888 29.8391 15.8958 29.8415 15.9035L29.8295 15.8872V15.8829ZM29.845 15.8039C29.8287 15.8086 29.812 15.8115 29.7951 15.8125H29.7711C29.76 15.8124 29.7489 15.8104 29.7385 15.8064C29.7335 15.8043 29.7291 15.8011 29.7256 15.797C29.7221 15.7944 29.7195 15.7908 29.7181 15.7866C29.7167 15.7825 29.7166 15.778 29.7178 15.7738V15.7686C29.7185 15.7655 29.7185 15.7623 29.7178 15.7592C29.7172 15.7547 29.7151 15.7504 29.7118 15.7472C29.7085 15.7466 29.7051 15.7471 29.7021 15.7485C29.699 15.7499 29.6964 15.7521 29.6946 15.7549H29.6895H29.68C29.6746 15.7558 29.6691 15.7558 29.6637 15.7549C29.6535 15.7484 29.6449 15.7396 29.6388 15.7291C29.6376 15.7223 29.6376 15.7153 29.6388 15.7085C29.6389 15.702 29.6403 15.6955 29.6431 15.6896C29.6431 15.6896 29.6526 15.6776 29.6491 15.6707C29.6457 15.6639 29.644 15.6707 29.6414 15.6656C29.6388 15.6604 29.6414 15.6604 29.6414 15.657C29.64 15.6557 29.6381 15.655 29.6362 15.655C29.6343 15.655 29.6325 15.6557 29.6311 15.657C29.6275 15.665 29.6246 15.6734 29.6225 15.6819C29.6212 15.6947 29.6212 15.7077 29.6225 15.7205C29.6225 15.7283 29.6285 15.7326 29.6302 15.7394C29.6353 15.7468 29.6414 15.7534 29.6483 15.7592C29.6483 15.7661 29.6663 15.7712 29.6706 15.7781L29.6886 15.7875C29.6938 15.7944 29.7084 15.7944 29.7135 15.8004C29.7205 15.8027 29.7271 15.8059 29.7333 15.8099C29.7582 15.8185 29.7797 15.8305 29.8046 15.8391C29.813 15.845 29.8219 15.8502 29.8312 15.8545C29.8312 15.8606 29.8407 15.8649 29.845 15.87C29.8398 15.87 29.8355 15.8606 29.8286 15.864C29.8292 15.8668 29.8304 15.8695 29.8322 15.8717C29.834 15.8739 29.8363 15.8757 29.8389 15.8769H29.845C29.851 15.8769 29.8372 15.87 29.8329 15.8692C29.8323 15.8673 29.8312 15.8657 29.8296 15.8645C29.8281 15.8633 29.8263 15.8625 29.8243 15.8623V15.8683H29.8192C29.8192 15.8683 29.8192 15.876 29.8243 15.8786C29.8295 15.8812 29.8183 15.8735 29.814 15.8717C29.8098 15.87 29.814 15.8717 29.814 15.8777C29.814 15.8777 29.814 15.8846 29.814 15.8872C29.8147 15.8906 29.8147 15.8941 29.814 15.8975C29.8119 15.9118 29.8119 15.9262 29.814 15.9405C29.8055 15.931 29.814 15.913 29.814 15.9009C29.8124 15.8936 29.8095 15.8866 29.8055 15.8803C29.784 15.8526 29.7537 15.8332 29.7196 15.8253C29.7101 15.8207 29.6999 15.8175 29.6895 15.8159C29.6667 15.8086 29.6443 15.8 29.6225 15.7901C29.6124 15.7829 29.6031 15.7746 29.595 15.7652C29.5892 15.7589 29.584 15.752 29.5796 15.7446C29.576 15.7388 29.5737 15.7324 29.5727 15.7257C29.5719 15.7194 29.5719 15.7131 29.5727 15.7068C29.5718 15.6985 29.5718 15.6902 29.5727 15.6819C29.5751 15.6634 29.5813 15.6456 29.5907 15.6295C29.5981 15.6182 29.6062 15.6073 29.6148 15.5969C29.6251 15.5866 29.6349 15.5757 29.644 15.5642C29.6521 15.5494 29.6622 15.5359 29.674 15.5238C29.6813 15.5183 29.6891 15.5134 29.6972 15.5092C29.7238 15.495 29.7531 15.4862 29.7831 15.4834C29.7995 15.5401 29.8123 15.5977 29.8278 15.6553C29.8286 15.6633 29.8286 15.6713 29.8278 15.6793C29.814 15.6743 29.7994 15.6726 29.7848 15.6742C29.7754 15.6793 29.7848 15.6922 29.796 15.6922H29.7926L29.7797 15.6982H29.7745C29.7719 15.6993 29.7696 15.701 29.7676 15.703C29.7657 15.7051 29.7643 15.7075 29.7634 15.7102C29.7634 15.7171 29.7634 15.7257 29.7745 15.7205L29.7917 15.7068C29.8062 15.7011 29.8217 15.6985 29.8372 15.6991C29.8441 15.7214 29.8501 15.7455 29.8553 15.7704C29.8394 15.7734 29.8231 15.7734 29.8072 15.7704C29.8036 15.7682 29.7994 15.767 29.7951 15.767C29.7909 15.767 29.7868 15.7682 29.7831 15.7704V15.7772C29.7831 15.7841 29.7677 15.7841 29.7659 15.7772C29.7667 15.7832 29.7696 15.7887 29.774 15.7927C29.7784 15.7968 29.784 15.7992 29.79 15.7996H29.7951C29.8158 15.7978 29.8362 15.7941 29.8561 15.7884C29.8561 15.8082 29.8561 15.8082 29.8475 15.8082L29.845 15.8039ZM29.8785 15.7936H29.8862C29.9088 15.7884 29.9318 15.7855 29.9549 15.785H29.9618C29.9343 15.7944 29.9051 15.7962 29.8785 15.8013V15.7936ZM29.9395 15.7669H29.8733C29.8673 15.7446 29.8613 15.7231 29.8561 15.6999C29.8803 15.7006 29.9044 15.7026 29.9283 15.7059L29.9352 15.7171L29.9524 15.7291C29.9547 15.7332 29.958 15.7367 29.9618 15.7394L29.9678 15.7446L29.9798 15.7532L29.967 15.7635C29.9587 15.769 29.9493 15.7725 29.9395 15.7738V15.7669ZM29.9919 15.8142C29.9919 15.8142 29.9979 15.8082 29.9996 15.8142C30.0013 15.8202 29.9876 15.8296 29.9919 15.821V15.8142ZM30.0589 15.7686C30.0589 15.779 30.0589 15.7893 30.0434 15.7961C30.0279 15.803 30.0383 15.7961 30.0365 15.7961C30.0348 15.7961 30.0279 15.8279 30.0108 15.8176C30.0108 15.8082 30.0185 15.8056 30.0228 15.8116C30.0271 15.8176 30.0168 15.8047 30.0099 15.8047C30.003 15.8047 30.0194 15.7893 30.0262 15.7833C30.0258 15.7816 30.0258 15.7798 30.0262 15.7781C30.0211 15.773 30.0168 15.7781 30.0168 15.785L30.0065 15.7979C30.0065 15.803 30.0065 15.809 29.9962 15.803C29.9859 15.797 30.0082 15.7867 30.0116 15.7772C30.0116 15.7772 30.0039 15.7893 29.997 15.791C29.9945 15.7983 29.9917 15.8055 29.9884 15.8125H29.9824C29.9809 15.808 29.9809 15.803 29.9825 15.7985C29.984 15.794 29.987 15.7902 29.991 15.7875C29.9858 15.7772 29.9773 15.7961 29.9764 15.8004C29.9759 15.8036 29.9759 15.8067 29.9764 15.8099V15.7901C29.9764 15.7901 29.9833 15.7841 29.9841 15.7798C29.9801 15.7806 29.9765 15.7827 29.9738 15.7858C29.9738 15.7858 29.9738 15.7918 29.9738 15.7918C29.9738 15.7918 29.9738 15.7841 29.9738 15.7833C29.9755 15.7808 29.9777 15.7787 29.9802 15.7771C29.9827 15.7754 29.9855 15.7743 29.9884 15.7738C29.9962 15.7738 29.9884 15.7669 29.9953 15.7652C30.0069 15.7628 30.0189 15.7628 30.0305 15.7652H30.0494C30.0563 15.7652 30.0632 15.7652 30.0666 15.7704C30.07 15.7755 30.0589 15.7721 30.0589 15.7755V15.7686ZM30.0022 15.7394C30.0076 15.7289 30.0122 15.718 30.0159 15.7068C30.0127 15.7182 30.0087 15.7294 30.0039 15.7403L30.0022 15.7394ZM30.0958 15.3821V15.5333C30.0958 15.584 30.0889 15.651 30.0864 15.7051L30.052 15.6965C30.0388 15.6956 30.0257 15.6956 30.0125 15.6965C30.0323 15.6312 30.0546 15.5651 30.0692 15.4938C30.0778 15.4508 30.0872 15.4079 30.0958 15.3658V15.3864V15.3821ZM30.0812 15.322L30.0589 15.346C30.0556 15.3505 30.0519 15.3545 30.0477 15.358C30.07 15.2927 30.101 15.2292 30.1207 15.1596C30.1302 15.1244 30.1413 15.09 30.1499 15.0531C30.1596 15.0131 30.1648 14.9722 30.1654 14.9311C30.1731 14.9311 30.1748 14.9431 30.1774 14.9509C30.1857 14.9758 30.1917 15.0014 30.1954 15.0273C30.1991 15.046 30.2014 15.065 30.2023 15.084C30.2029 15.0937 30.2029 15.1035 30.2023 15.1132V15.1433C30.1984 15.1546 30.193 15.1653 30.186 15.1751C30.1809 15.1862 30.1731 15.194 30.168 15.2034C30.1562 15.2224 30.143 15.2405 30.1284 15.2576C30.1145 15.2823 30.099 15.3061 30.0821 15.3288L30.0812 15.322ZM30.1465 15.48C30.1431 15.4337 30.1431 15.3872 30.1465 15.3409V15.3228C30.1464 15.3129 30.1498 15.3031 30.1559 15.2953L30.168 15.2859L30.18 15.2739C30.18 15.267 30.186 15.2592 30.1869 15.2541C30.1879 15.3363 30.1818 15.4186 30.1688 15.4998C30.1677 15.5234 30.1655 15.5469 30.1619 15.5702C30.1546 15.5426 30.1497 15.5145 30.1473 15.486L30.1465 15.48ZM30.1611 15.6518H30.1448C30.1332 15.602 30.1246 15.5515 30.119 15.5006C30.1127 15.4468 30.1101 15.3925 30.1113 15.3383C30.1131 15.3371 30.1151 15.3365 30.1173 15.3365C30.1194 15.3365 30.1215 15.3371 30.1233 15.3383C30.1285 15.3383 30.1233 15.3658 30.1284 15.3769C30.1284 15.419 30.1284 15.4628 30.1362 15.5006C30.1378 15.5269 30.141 15.553 30.1456 15.5788C30.1456 15.5994 30.1585 15.6218 30.1619 15.6441L30.1611 15.6518ZM30.1035 15.6836C30.1035 15.6218 30.1035 15.5582 30.1087 15.4963V15.5066L30.119 15.584C30.1252 15.6123 30.1297 15.641 30.1327 15.6699L30.113 15.6776C30.1124 15.6793 30.1112 15.6808 30.1096 15.6818C30.1081 15.6827 30.1062 15.6831 30.1044 15.6828L30.1035 15.6836ZM30.2504 15.7798C30.2393 15.7716 30.2272 15.765 30.2143 15.7601H30.2006C30.2006 15.7652 30.2075 15.7652 30.2126 15.7652C30.2219 15.7671 30.2307 15.7709 30.2384 15.7764C30.2384 15.7764 30.2487 15.7824 30.247 15.7867C30.2453 15.791 30.2281 15.7815 30.2272 15.7781C30.2264 15.7747 30.2221 15.773 30.2178 15.7712H30.2066C30.2029 15.7721 30.1991 15.7721 30.1954 15.7712C30.1954 15.7833 30.2135 15.7781 30.2186 15.7841L30.2247 15.7893V15.7841C30.2247 15.779 30.2393 15.797 30.2247 15.8004C30.21 15.8039 30.2058 15.7944 30.1989 15.7927C30.1872 15.7919 30.1754 15.7919 30.1637 15.7927C30.1525 15.7927 30.1499 15.7841 30.1439 15.7781C30.1357 15.7728 30.1267 15.7688 30.1173 15.7661C30.121 15.7558 30.1266 15.7462 30.1336 15.7377C30.1384 15.7334 30.1443 15.7304 30.1506 15.729C30.157 15.7277 30.1635 15.728 30.1697 15.73L30.1886 15.736L30.198 15.7429C30.198 15.7429 30.204 15.7506 30.2075 15.7515C30.2171 15.7535 30.2265 15.7561 30.2358 15.7592C30.2444 15.7592 30.2427 15.7592 30.2427 15.7592H30.2376C30.2279 15.7598 30.2183 15.7574 30.2101 15.7523C30.2015 15.7455 30.2101 15.7523 30.2152 15.7523C30.2273 15.7555 30.2389 15.7604 30.2496 15.7669C30.2556 15.7669 30.2496 15.7669 30.2496 15.7669L30.2504 15.7798ZM30.6009 15.7437C30.6009 15.754 30.6129 15.7566 30.6112 15.7704C30.6085 15.7752 30.6046 15.7793 30.6001 15.7824C30.6014 15.7799 30.6021 15.7771 30.6021 15.7742C30.6021 15.7714 30.6014 15.7686 30.6001 15.7661C30.6001 15.7661 30.6 15.7592 30.5915 15.7601C30.5829 15.7609 30.5915 15.7695 30.5966 15.7755C30.5969 15.7785 30.5966 15.7814 30.5955 15.7842C30.5945 15.787 30.5928 15.7895 30.5906 15.7915C30.5885 15.7935 30.5859 15.7949 30.583 15.7957C30.5802 15.7966 30.5772 15.7967 30.5743 15.7961C30.5743 15.7893 30.5837 15.7962 30.5855 15.7867C30.5872 15.7773 30.5854 15.7755 30.5769 15.7721C30.5683 15.7687 30.5769 15.7721 30.5769 15.7772C30.5769 15.7824 30.5691 15.7669 30.5614 15.7695C30.5537 15.7721 30.5691 15.7815 30.5614 15.7875C30.5549 15.7889 30.5482 15.7889 30.5416 15.7875C30.5314 15.788 30.5213 15.7846 30.5133 15.7781C30.5108 15.773 30.508 15.7681 30.5047 15.7635C30.5015 15.7639 30.4983 15.7633 30.4954 15.762C30.4925 15.7606 30.4901 15.7584 30.4884 15.7558C30.4832 15.748 30.4884 15.7489 30.4824 15.7463L30.4643 15.7386C30.4453 15.7301 30.425 15.7248 30.4042 15.7231C30.3685 15.7245 30.3327 15.7216 30.2977 15.7145L30.2625 15.7077H30.2272C30.2225 15.7068 30.2182 15.7046 30.2148 15.7012C30.2114 15.6978 30.2092 15.6935 30.2083 15.6888C30.2057 15.6656 30.1993 15.6429 30.1894 15.6218C30.1867 15.6113 30.1867 15.6004 30.1894 15.59C30.1888 15.5805 30.1906 15.5711 30.1946 15.5625C30.1997 15.5522 30.1946 15.541 30.1946 15.5307C30.1963 15.5151 30.2022 15.5002 30.2118 15.4877L30.2229 15.4989C30.2319 15.5034 30.2406 15.5085 30.2487 15.5144C30.2523 15.5172 30.2552 15.5207 30.2573 15.5247C30.2685 15.5427 30.2642 15.5702 30.2719 15.5908V15.6003C30.2719 15.6003 30.247 15.6003 30.241 15.608C30.235 15.6158 30.259 15.608 30.2685 15.608C30.2792 15.6083 30.2898 15.6109 30.2994 15.6158C30.3054 15.6158 30.3106 15.6295 30.3183 15.6321C30.3325 15.6362 30.3473 15.6386 30.3621 15.639L30.4102 15.645C30.4316 15.6498 30.4523 15.657 30.472 15.6664C30.4754 15.6656 30.479 15.6656 30.4824 15.6664L30.4901 15.6724C30.4978 15.6755 30.5059 15.6772 30.5141 15.6776L30.5373 15.6836C30.5434 15.6836 30.5537 15.6896 30.5605 15.6939C30.5674 15.6982 30.5657 15.6991 30.5691 15.6999H30.5855C30.591 15.7021 30.5962 15.705 30.6009 15.7085C30.606 15.711 30.6103 15.7148 30.6134 15.7195C30.6166 15.7241 30.6185 15.7295 30.619 15.7352C30.619 15.7352 30.6138 15.7266 30.6044 15.7352L30.6009 15.7437ZM30.6997 15.7437C30.6926 15.7424 30.6853 15.7424 30.6782 15.7437C30.6662 15.7446 30.6541 15.7425 30.643 15.7377L30.6095 15.7317C30.6197 15.7295 30.6302 15.7295 30.6404 15.7317C30.6619 15.7317 30.6963 15.7317 30.7031 15.7437C30.7037 15.7463 30.7037 15.7489 30.7031 15.7515C30.7031 15.7515 30.7031 15.7386 30.7031 15.7377L30.6997 15.7437ZM30.7856 15.7137C30.7856 15.7137 30.795 15.724 30.7942 15.7291H30.789C30.7813 15.7291 30.7822 15.712 30.7701 15.7128C30.7701 15.7231 30.7882 15.7266 30.7822 15.742C30.7762 15.7575 30.7727 15.7498 30.7633 15.7498C30.7538 15.7498 30.7633 15.7446 30.7633 15.7412C30.7633 15.7377 30.7487 15.7214 30.7409 15.73C30.7332 15.7386 30.7504 15.7429 30.7469 15.7515C30.7441 15.7543 30.7402 15.7558 30.7362 15.7558C30.7322 15.7558 30.7283 15.7543 30.7255 15.7515H30.7349C30.7349 15.7515 30.7349 15.7455 30.7272 15.7437L30.7177 15.736C30.7177 15.7171 30.7031 15.7154 30.6851 15.7128L30.5992 15.7051C30.5992 15.6914 30.588 15.6896 30.5769 15.6871L30.5305 15.6793C30.5236 15.6793 30.5124 15.6742 30.5124 15.669C30.5124 15.6638 30.521 15.6587 30.5253 15.6553C30.5406 15.645 30.5552 15.6338 30.5691 15.6218C30.5961 15.6282 30.622 15.6389 30.6456 15.6536L30.6636 15.663L30.6834 15.6716C30.7151 15.6802 30.7581 15.6716 30.783 15.6871C30.7872 15.6897 30.7907 15.6932 30.7934 15.6974C30.796 15.7015 30.7978 15.7062 30.7985 15.7111C30.7925 15.7111 30.7925 15.6974 30.7856 15.6965C30.7841 15.6967 30.7826 15.6974 30.7815 15.6985C30.7804 15.6996 30.7798 15.701 30.7796 15.7025C30.7836 15.7019 30.7876 15.7019 30.7916 15.7025L30.7856 15.7137ZM30.5201 15.7678C30.5081 15.7626 30.5064 15.7506 30.4987 15.7446L30.4909 15.7394H30.4832C30.4738 15.7394 30.4626 15.7334 30.4523 15.73H30.4411L30.4274 15.724C30.4108 15.7231 30.3942 15.7231 30.3776 15.724C30.3533 15.7228 30.3292 15.72 30.3054 15.7154C30.2943 15.7147 30.2834 15.7126 30.2728 15.7094H30.2625C30.2549 15.7068 30.2468 15.7068 30.2393 15.7094C30.2393 15.7094 30.2324 15.7094 30.2298 15.7094C30.2272 15.7094 30.2221 15.7016 30.2152 15.7034C30.2138 15.7052 30.213 15.7075 30.213 15.7098C30.213 15.7122 30.2138 15.7144 30.2152 15.7163L30.2247 15.724H30.2418C30.2613 15.7222 30.2809 15.7246 30.2994 15.7309C30.3464 15.7331 30.3932 15.7385 30.4394 15.7472L30.4592 15.7523C30.4749 15.7594 30.4899 15.768 30.5038 15.7781C30.5116 15.7893 30.5232 15.7972 30.5365 15.8004C30.5442 15.8004 30.5554 15.8004 30.5554 15.7927C30.5554 15.785 30.5288 15.7712 30.5193 15.7661L30.5201 15.7678ZM30.0529 14.4887H30.0589C30.0589 14.4887 30.0735 14.4887 30.0786 14.4887C30.0838 14.4887 30.0786 14.4673 30.0786 14.4578C30.0774 14.4536 30.0774 14.4491 30.0786 14.4449C30.0786 14.4449 30.0992 14.4569 30.113 14.4449C30.1267 14.4329 30.1181 14.4449 30.1207 14.4449C30.1207 14.4449 30.1207 14.4449 30.1147 14.4449C30.1081 14.4398 30.0998 14.4374 30.0915 14.438C30.0855 14.4384 30.0796 14.4401 30.0743 14.4432C30.0743 14.426 30.1053 14.4234 30.1138 14.4346C30.1125 14.4308 30.1105 14.4273 30.1078 14.4243C30.1014 14.4212 30.0942 14.4201 30.0872 14.4212C30.0801 14.4222 30.0735 14.4254 30.0683 14.4303C30.0657 14.4436 30.0657 14.4574 30.0683 14.4707C30.0683 14.4758 30.0683 14.4784 30.0683 14.4836C30.0684 14.4856 30.0677 14.4875 30.0664 14.4891C30.0652 14.4907 30.0634 14.4917 30.0614 14.4922C30.0614 14.4836 30.0477 14.4767 30.0503 14.487L30.0529 14.4887ZM30.1035 14.4363H30.1095C30.1083 14.4382 30.1067 14.4398 30.1047 14.441C30.1028 14.4422 30.1006 14.4429 30.0984 14.4432C30.0991 14.4412 30.0991 14.4391 30.0984 14.4372C30.0984 14.4372 30.1035 14.432 30.0984 14.4303L30.1035 14.4363ZM30.0932 14.4363C30.0928 14.438 30.0928 14.4398 30.0932 14.4415V14.4475C30.0877 14.4471 30.0824 14.4453 30.0778 14.4423C30.0807 14.4368 30.0856 14.4325 30.0915 14.4303L30.0932 14.4363ZM30.0073 14.4501C30.013 14.4514 30.0188 14.4514 30.0245 14.4501C30.0298 14.45 30.035 14.4486 30.0396 14.446C30.0443 14.4435 30.0482 14.4399 30.0511 14.4355C30.0513 14.4293 30.0493 14.4233 30.0456 14.4185C30.0418 14.4136 30.0365 14.4102 30.0305 14.4088C30.0247 14.407 30.0184 14.407 30.0125 14.4088C30.0075 14.4114 30.0035 14.4157 30.0013 14.4208C30.0082 14.4208 30.0151 14.4105 30.0314 14.414C30.0477 14.4174 30.0477 14.426 30.0417 14.4286C30.0396 14.4257 30.0365 14.4236 30.0331 14.4226C30.0274 14.4213 30.0214 14.4215 30.0158 14.4234C30.0102 14.4252 30.0052 14.4285 30.0013 14.4329C30.0036 14.438 30.0076 14.4422 30.0125 14.4449L30.0073 14.4501ZM30.0297 14.4363C30.0327 14.4353 30.036 14.4353 30.0391 14.4363C30.0362 14.4397 30.0323 14.4421 30.0279 14.4432C30.0287 14.4412 30.0287 14.4391 30.0279 14.4372C30.0291 14.4356 30.0298 14.4336 30.0298 14.4316C30.0298 14.4296 30.0291 14.4276 30.0279 14.426L30.0297 14.4363ZM30.0194 14.4363C30.019 14.4371 30.0188 14.438 30.0188 14.4389C30.0188 14.4398 30.019 14.4407 30.0194 14.4415C30.0189 14.4424 30.0187 14.4434 30.0187 14.4445C30.0187 14.4455 30.0189 14.4465 30.0194 14.4475C30.014 14.4475 30.0089 14.4457 30.0048 14.4423C30.0067 14.437 30.0108 14.4327 30.0159 14.4303L30.0194 14.4363Z" fill="#1D1D1B"/>
<path d="M30.0517 8.17188L29.313 13.7228L30.0526 13.3285L30.0517 8.17188Z" fill="#EF7D00"/>
<path d="M28.402 14.5913L25.5518 13.6602L28.566 15.3979L28.402 14.5913Z" fill="#EF7D00"/>
<path d="M34.5703 13.6523L31.1343 14.0252L31.7218 14.5835L34.5703 13.6523Z" fill="#EF7D00"/>
<path d="M31.0801 16.5127L32.8943 18.9704L31.4151 15.7852L31.0801 16.5127Z" fill="#EF7D00"/>
<path d="M27.2256 18.9702L29.8628 16.6328L29.0372 16.5117L27.2256 18.9702Z" fill="#EF7D00"/>
<path d="M30.1724 16.5234L31.0108 16.4031L31.3544 15.6523L30.1724 16.5234Z" fill="#EF7D00"/>
<path d="M28.7651 15.6523L29.101 16.4014L29.9437 16.5225L28.7651 15.6523Z" fill="#EF7D00"/>
<path d="M29.1311 14.0586L28.5298 14.6204L28.6973 15.4347L29.1311 14.0586Z" fill="#EF7D00"/>
<path d="M30.9839 14.0586L31.5852 14.6212L31.4177 15.4356L30.9839 14.0586Z" fill="#EF7D00"/>
<path d="M30.806 13.9124L30.0578 13.5078L29.3096 13.9124H30.806Z" fill="#EF7D00"/>
</svg>
